<svg width="65" height="100" viewBox="0 0 65 100" fill="none" xmlns="http://www.w3.org/2000/svg">
<mask id="mask0_53_511" style="mask-type:alpha" maskUnits="userSpaceOnUse" x="0" y="0" width="65" height="100">
<path d="M4.82035 97.5458C2.27976 96.3503 2.0805 94.3701 2.29844 93.5295L1.17733 33.0037L0.803711 17.9657H3.60583L6.68816 15.9108L3.60583 13.5757H0.803711V6.10342C0.803711 2.74088 3.91717 1.52663 5.47391 1.33982L59.9284 0.872803C62.992 0.872803 63.9447 3.79946 64.0381 5.26279C64.0064 7.43333 63.9728 11.3697 63.9376 13.8559L58.9009 16.0042L64.0381 17.6855C63.6245 47.136 62.8723 89.9419 62.5437 91.8482C62.1701 94.0152 60.769 95.1796 60.1152 95.4909C59.4614 95.74 58.0229 96.3129 57.4999 96.6118C56.9768 96.9107 55.1025 97.2968 54.2307 97.4524L10.3309 99.0403C9.55263 99.0403 7.36093 98.7414 4.82035 97.5458Z" fill="white"/>
<path d="M63.9376 13.8559C63.9728 11.3697 64.0064 7.43334 64.0381 5.26279C63.9447 3.79946 62.992 0.872803 59.9284 0.872803L5.47391 1.33982C3.91717 1.52663 0.803711 2.74088 0.803711 6.10342V13.5757H3.60583L6.68816 15.9108L3.60583 17.9657H0.803711L1.17733 33.0037L2.29844 93.5295C2.0805 94.3701 2.27976 96.3503 4.82035 97.5458C7.36093 98.7414 9.55263 99.0403 10.3309 99.0403L54.2307 97.4524C55.1025 97.2968 56.9768 96.9107 57.4999 96.6118C58.0229 96.3129 59.4614 95.74 60.1152 95.4909C60.769 95.1796 62.1701 94.0152 62.5437 91.8482C62.8723 89.9419 63.6245 47.136 64.0381 17.6855L58.9009 16.0042L63.9376 13.8559ZM63.9376 13.8559C63.9437 13.4109 63.9429 12.7321 63.9376 13.1087" stroke="black" stroke-width="0.934039"/>
</mask>
<g mask="url(#mask0_53_511)">
<path d="M-4.05273 99.5072V-0.259399C19.6905 5.78706 38.2219 -9.32814 65.4398 -0.259399V99.5072H-4.05273Z" fill="#BB071F"/>
</g>
<path d="M2.29844 93.5295L2.75052 93.6467L2.76657 93.5848L2.76538 93.5208L2.29844 93.5295ZM4.82035 97.5458L5.0192 97.1233H5.0192L4.82035 97.5458ZM10.3309 99.0403V99.5073H10.3394L10.3478 99.507L10.3309 99.0403ZM54.2307 97.4524L54.2476 97.9191L54.2805 97.918L54.3128 97.9122L54.2307 97.4524ZM57.4999 96.6118L57.7316 97.0173V97.0173L57.4999 96.6118ZM60.1152 95.4909L60.2814 95.9274L60.299 95.9207L60.316 95.9126L60.1152 95.4909ZM62.5437 91.8482L63.0039 91.9275L62.5437 91.8482ZM64.0381 5.26279L64.5051 5.26961L64.5054 5.2513L64.5042 5.23304L64.0381 5.26279ZM59.9284 0.872803V0.405766L59.9244 0.4058L59.9284 0.872803ZM5.47391 1.33982L5.4699 0.87282L5.44399 0.873042L5.41826 0.876129L5.47391 1.33982ZM0.803711 13.5757H0.336691V14.0428H0.803711V13.5757ZM3.60583 13.5757L3.88784 13.2035L3.76276 13.1087H3.60583V13.5757ZM6.68816 15.9108L6.94721 16.2994L7.49363 15.9351L6.97017 15.5386L6.68816 15.9108ZM3.60583 17.9657V18.4327H3.74723L3.86488 18.3543L3.60583 17.9657ZM0.803711 17.9657V17.4987H0.324944L0.336836 17.9773L0.803711 17.9657ZM1.17733 33.0037L1.64428 32.9951L1.6442 32.9921L1.17733 33.0037ZM63.9376 13.8559L64.4046 13.8626V13.8626L63.9376 13.8559ZM64.0381 17.6855L64.5051 17.6921L64.5099 17.3485L64.1834 17.2416L64.0381 17.6855ZM64.1071 14.4779C64.3474 14.3843 64.4664 14.1136 64.3728 13.8733C64.2792 13.6329 64.0085 13.514 63.7681 13.6076L64.1071 14.4779ZM58.9009 16.0042L58.7315 15.569L57.516 16.0424L58.7557 16.4481L58.9009 16.0042ZM1.84637 93.4123C1.57465 94.4603 1.86851 96.6729 4.62149 97.9684L5.0192 97.1233C2.69101 96.0276 2.58635 94.2799 2.75052 93.6467L1.84637 93.4123ZM4.62149 97.9684C7.21908 99.1908 9.47836 99.5073 10.3309 99.5073V98.5733C9.62691 98.5733 7.50279 98.292 5.0192 97.1233L4.62149 97.9684ZM10.3478 99.507L54.2476 97.9191L54.2139 96.9857L10.314 98.5736L10.3478 99.507ZM54.3128 97.9122C54.7553 97.8332 55.4508 97.696 56.1044 97.5401C56.431 97.4622 56.752 97.3785 57.028 97.2938C57.2935 97.2124 57.5521 97.1198 57.7316 97.0173L57.2682 96.2063C57.1861 96.2532 57.0143 96.321 56.754 96.4009C56.5042 96.4775 56.2041 96.5561 55.8877 96.6315C55.2555 96.7823 54.578 96.916 54.1486 96.9927L54.3128 97.9122ZM57.7316 97.0173C58.2161 96.7404 59.6156 96.181 60.2814 95.9274L59.9489 95.0545C59.3071 95.299 57.8297 95.8854 57.2682 96.2063L57.7316 97.0173ZM60.316 95.9126C61.0911 95.5435 62.6017 94.2603 63.0039 91.9275L62.0835 91.7688C61.7384 93.7701 60.4469 94.8157 59.9144 95.0693L60.316 95.9126ZM64.5042 5.23304C64.4535 4.43791 64.173 3.25325 63.4812 2.25332C62.7757 1.23371 61.6374 0.405783 59.9284 0.405783V1.33982C61.283 1.33982 62.1529 1.97523 62.7131 2.78478C63.2868 3.614 63.5294 4.62434 63.5721 5.29253L64.5042 5.23304ZM59.9244 0.4058L5.4699 0.87282L5.47791 1.80682L59.9324 1.33981L59.9244 0.4058ZM5.41826 0.876129C4.57446 0.977386 3.32297 1.35209 2.27057 2.16033C1.20208 2.98094 0.336691 4.25403 0.336691 6.10342H1.27073C1.27073 4.59027 1.96208 3.57497 2.83949 2.90111C3.73301 2.21489 4.81662 1.88907 5.52955 1.80351L5.41826 0.876129ZM0.336691 6.10342V13.5757H1.27073V6.10342H0.336691ZM0.803711 14.0428H3.60583V13.1087H0.803711V14.0428ZM3.32381 13.948L6.40614 16.2831L6.97017 15.5386L3.88784 13.2035L3.32381 13.948ZM6.4291 15.5222L3.34677 17.5771L3.86488 18.3543L6.94721 16.2994L6.4291 15.5222ZM3.60583 17.4987H0.803711V18.4327H3.60583V17.4987ZM0.336836 17.9773L0.710451 33.0153L1.6442 32.9921L1.27059 17.9541L0.336836 17.9773ZM0.710387 33.0124L1.8315 93.5381L2.76538 93.5208L1.64427 32.9951L0.710387 33.0124ZM64.4046 13.8626C64.4401 11.3551 64.4732 7.45673 64.5051 5.26961L63.5712 5.25597C63.5397 7.40994 63.5056 11.3842 63.4706 13.8493L64.4046 13.8626ZM64.4046 13.1153C64.4049 13.0919 64.4052 13.0772 64.4053 13.0694C64.4055 13.0642 64.4055 13.0658 64.4053 13.0699C64.4052 13.0711 64.405 13.075 64.4047 13.0801C64.4045 13.0826 64.4042 13.0874 64.4036 13.0935C64.4032 13.0969 64.4017 13.1126 64.398 13.1325C64.3956 13.1445 64.3871 13.1783 64.3803 13.1997C64.3605 13.248 64.2221 13.4186 64.0719 13.495C63.8192 13.4987 63.5478 13.3026 63.5075 13.2263C63.4963 13.1965 63.4834 13.1506 63.4802 13.1351C63.4756 13.1111 63.474 13.092 63.4737 13.089C63.4731 13.0821 63.4728 13.0768 63.4726 13.0741C63.4719 13.0603 63.4722 13.0643 63.4721 13.1178C63.4719 13.1983 63.4713 13.3374 63.4706 13.4779C63.47 13.6176 63.4693 13.7587 63.4691 13.8416C63.4691 13.8721 63.4689 13.9172 63.4698 13.9372C63.4698 13.9372 63.4705 13.9546 63.4733 13.9756C63.4742 13.9827 63.4772 14.0008 63.4794 14.0117C63.4839 14.0309 63.5036 14.0909 63.5217 14.1304C63.6002 14.2397 63.9703 14.3813 64.2226 14.2846C64.2998 14.2089 64.3722 14.0833 64.3842 14.0482C64.3889 14.0312 64.395 14.0039 64.3968 13.9938C64.3979 13.9873 64.3995 13.976 64.4001 13.9714C64.4012 13.9621 64.4018 13.9547 64.4021 13.9514C64.4026 13.9442 64.4029 13.9385 64.403 13.9363C64.4034 13.9279 64.4036 13.9191 64.4037 13.9149C64.404 13.9033 64.4043 13.8858 64.4046 13.8626L63.4706 13.8493C63.4703 13.8724 63.4701 13.8866 63.4699 13.8941C63.4698 13.8994 63.4698 13.8969 63.47 13.8918C63.4701 13.8905 63.4703 13.8854 63.4709 13.8787C63.4711 13.8757 63.4717 13.8685 63.4728 13.8593C63.4734 13.8547 63.475 13.8436 63.476 13.837C63.4779 13.827 63.484 13.7998 63.4886 13.7828C63.5006 13.7477 63.573 13.6222 63.6502 13.5465C63.9025 13.4497 64.2726 13.5914 64.3511 13.7007C64.3692 13.7401 64.3889 13.8001 64.3934 13.8192C64.3955 13.8302 64.3985 13.8482 64.3995 13.8552C64.4012 13.8682 64.4019 13.8784 64.4022 13.8818C64.4025 13.8865 64.4027 13.8903 64.4028 13.8924C64.4033 13.9031 64.4031 13.8951 64.4032 13.8435C64.4033 13.7622 64.404 13.6227 64.4047 13.4823C64.4053 13.3425 64.406 13.2018 64.4061 13.1196C64.4062 13.0917 64.4064 13.0437 64.4052 13.0217C64.405 13.0188 64.4047 13.0132 64.4041 13.0062C64.4038 13.003 64.4022 12.9837 64.3976 12.9597C64.3943 12.9442 64.3814 12.8982 64.3702 12.8684C64.3299 12.792 64.0586 12.5959 63.8058 12.5997C63.6556 12.676 63.5171 12.8467 63.4974 12.895C63.4905 12.9165 63.482 12.9502 63.4796 12.9623C63.4759 12.9823 63.4744 12.9981 63.474 13.0017C63.4734 13.008 63.4731 13.0131 63.4729 13.0158C63.4725 13.0215 63.4723 13.0261 63.4722 13.0282C63.4718 13.036 63.4716 13.0442 63.4715 13.0489C63.4713 13.0607 63.471 13.0785 63.4706 13.1021L64.4046 13.1153ZM63.0039 91.9275C63.03 91.7763 63.0532 91.4676 63.0764 91.0507C63.1003 90.6211 63.1255 90.046 63.152 89.3396C63.2049 87.9265 63.2629 85.9809 63.3245 83.6097C63.4478 78.8668 63.5856 72.4158 63.726 65.1049C64.0068 50.4829 64.2983 32.4179 64.5051 17.6921L63.5712 17.6789C63.3644 32.4036 63.0729 50.4669 62.7921 65.087C62.6517 72.3972 62.514 78.8457 62.3908 83.5854C62.3292 85.9555 62.2713 87.8969 62.2186 89.3047C62.1922 90.0088 62.1672 90.5775 62.1438 90.9988C62.1196 91.4327 62.0985 91.6818 62.0835 91.7688L63.0039 91.9275ZM63.7681 13.6076L58.7315 15.569L59.0704 16.4394L64.1071 14.4779L63.7681 13.6076ZM58.7557 16.4481L63.8929 18.1294L64.1834 17.2416L59.0462 15.5604L58.7557 16.4481Z" fill="#333333"/>
<path d="M17.3864 15.4648L13.8268 15.458C13.3425 15.4543 12.9318 15.6551 12.9209 15.8961C12.91 16.1431 13.3105 16.34 13.8069 16.3376L17.3664 16.3444C17.8507 16.3481 18.2614 16.1473 18.2602 15.9063C18.2711 15.6593 17.8828 15.4624 17.3864 15.4648Z" fill="#333333"/>
<path d="M24.3623 15.4796L20.8149 15.4727C20.3306 15.469 19.9199 15.6698 19.9211 15.9108C19.9101 16.1579 20.3106 16.3548 20.7949 16.3525L24.3424 16.3594C24.8267 16.3631 25.2373 16.1622 25.2483 15.9212C25.2471 15.6741 24.8466 15.4772 24.3623 15.4796Z" fill="#333333"/>
<path d="M31.3625 15.4922L27.815 15.4853C27.3307 15.4816 26.92 15.6826 26.9212 15.9238C26.9103 16.1712 27.3108 16.3682 27.7951 16.3659L31.3425 16.3728C31.8268 16.3765 32.2375 16.1755 32.2484 15.9342C32.2472 15.6869 31.8588 15.4898 31.3625 15.4922Z" fill="#333333"/>
<path d="M38.3624 15.4582L34.8149 15.4513C34.3306 15.4476 33.9199 15.6487 33.9211 15.8899C33.9102 16.1372 34.3107 16.3343 34.795 16.3319L38.3424 16.3389C38.8267 16.3425 39.2374 16.1415 39.2484 15.9002C39.2472 15.653 38.8588 15.4558 38.3624 15.4582Z" fill="#333333"/>
<path d="M45.3618 15.3291L41.8144 15.3222C41.3301 15.3185 40.9194 15.5195 40.9206 15.7607C40.9097 16.008 41.3102 16.2051 41.7944 16.2028L45.3419 16.2097C45.8262 16.2134 46.2369 16.0124 46.2478 15.7711C46.2466 15.5238 45.8582 15.3267 45.3618 15.3291Z" fill="#333333"/>
<path d="M52.3618 15.2951L48.8143 15.2882C48.33 15.2845 47.9193 15.4855 47.9205 15.7268C47.9096 15.9741 48.3101 16.1712 48.7944 16.1688L52.3418 16.1757C52.8261 16.1794 53.2368 15.9784 53.2477 15.7371C53.2465 15.4899 52.8581 15.2927 52.3618 15.2951Z" fill="#333333"/>
</svg>
