<svg width="64" height="65" viewBox="0 0 64 65" fill="none" xmlns="http://www.w3.org/2000/svg">
<path d="M53.5245 20.1832C52.4348 14.2928 48.9916 8.57705 43.8486 5.34827C37.8338 1.59592 30.3808 2.33766 24.2353 5.43554C15.2567 10.2351 8.50105 19.9214 10.288 30.4367C11.2905 36.1961 14.8209 41.0393 19.3102 44.6608C21.1407 46.1443 24.0609 46.9296 25.4992 48.7622C25.6736 49.024 25.8479 49.2858 25.9787 49.5476C26.0223 49.6348 26.0223 49.7657 26.1094 49.853C26.8504 51.8601 26.2402 54.6961 26.3709 56.6596C26.5017 58.3612 26.8068 60.2374 28.2887 61.2846C30.3808 62.7681 34.1291 62.4627 36.4827 62.0263C43.7178 60.7174 37.8774 52.3836 41.5386 48.195C43.4127 46.057 45.9843 44.6608 47.8148 42.4792C49.5582 40.3848 50.953 38.0723 51.9554 35.5417C53.9167 30.6985 54.5269 25.3318 53.5245 20.1832ZM31.2089 37.6796C32.2114 37.2433 33.1266 36.7197 33.9548 36.0653C34.565 36.5016 35.2187 36.807 35.9161 37.0688C35.1316 40.2539 35.2623 43.57 36.0468 46.6678C33.6932 47.2351 31.2961 47.4532 28.8553 47.4096C29.2912 45.5334 29.727 43.6572 30.2064 41.8247C30.5551 40.4721 31.0346 39.0759 31.2089 37.6796ZM34.0855 32.7492C33.5189 31.9202 33.4753 31.0039 33.9112 30.044C35.4802 29.8259 36.0033 30.0877 35.4802 30.7858C35.3495 31.4839 34.7829 32.182 34.1291 32.8365C34.1291 32.7928 34.1291 32.7928 34.0855 32.7492ZM28.7681 52.7327C31.8191 52.8636 34.8265 52.5145 37.7467 51.6419C37.7467 51.8164 37.7467 52.0346 37.7467 52.2091C34.87 53.3435 31.8627 53.8671 28.7681 53.6926C28.7681 53.4308 28.8117 53.2127 28.8117 52.9945C28.7681 52.9072 28.7681 52.82 28.7681 52.7327ZM36.9621 49.3294C34.2163 50.1148 31.4268 50.4638 28.5066 50.2893C28.463 50.1148 28.4195 49.9402 28.3759 49.8093C31.2089 49.8966 34.0419 49.6348 36.7878 48.9803C36.875 49.0676 36.9185 49.1985 36.9621 49.3294ZM28.7245 57.1395C28.681 56.8341 28.681 56.4851 28.6374 56.136C31.8191 56.2669 34.87 55.8306 37.8338 54.7398C37.8338 55.0016 37.8774 55.2197 37.8774 55.4815C35.3059 57.0086 31.6883 57.1395 28.7245 57.1395ZM33.6497 59.8884C32.6036 59.932 31.2089 60.0193 30.1629 59.5829C32.7344 59.4957 35.4802 59.2339 37.8338 58.2303C37.3544 59.8011 35.2623 59.8447 33.6497 59.8884ZM41.495 45.0098C40.4925 45.8388 39.5772 46.7115 38.9235 47.715C38.8799 47.5841 38.8363 47.4968 38.7927 47.366C38.7491 47.2351 38.7491 47.1042 38.662 46.9733C37.7031 43.919 37.4852 40.603 38.3133 37.5051C38.6184 37.5051 38.9235 37.5051 39.2286 37.5051C41.2771 37.3306 45.4612 35.2362 43.3256 32.6183C42.2795 31.3094 40.231 31.4839 38.9235 32.2256C37.8774 32.8365 37.1365 33.7528 36.657 34.7999C36.3519 34.7127 36.0468 34.5818 35.7417 34.4072C35.7853 34.3636 35.8289 34.32 35.8725 34.2763C37.5287 32.4002 40.2746 27.9933 36.3519 26.8589C33.4317 25.9862 30.9038 28.9532 31.1653 31.702C31.2525 32.7056 31.6012 33.6219 32.1242 34.3636C31.7319 34.6254 31.3832 34.8436 31.0781 34.9744C31.0346 34.9744 30.991 35.0181 30.991 35.0181C30.25 32.2693 27.1991 30.2186 24.6275 32.1384C22.0124 34.1018 23.9302 37.6796 26.6325 38.2905C27.2862 38.4214 27.94 38.465 28.6374 38.3778C28.3759 39.5558 27.94 40.7339 27.7221 41.6502C27.2862 43.3082 26.9376 45.0098 26.5017 46.7115C25.8915 46.1006 25.107 45.577 24.1481 45.0098C19.6588 42.3919 15.6926 38.6395 13.6877 33.6655C9.45993 23.1502 16.2156 12.4603 25.4557 7.52988C30.8602 4.82469 37.3544 4.17021 42.6718 7.48624C47.0739 10.2351 49.9505 15.1655 51.0837 20.1832C53.1758 29.8695 48.9916 38.9886 41.495 45.0098ZM39.4901 34.7563C39.9695 34.0145 40.2746 34.0145 40.3182 34.7563C40.1003 34.669 39.7952 34.7127 39.4901 34.7563ZM28.8117 35.8035C27.8964 36.0653 27.0247 35.9344 26.2402 35.3671C26.1966 33.4473 26.9376 33.2292 28.4195 34.7563C28.5938 35.1053 28.7245 35.4544 28.8117 35.8035Z" fill="#BB071F"/>
<path d="M21.7524 11.6313C17.0453 16.998 11.7715 23.761 14.7352 31.3093C15.3019 32.7492 17.6554 32.1383 17.0888 30.6548C14.4737 23.9791 19.3117 18.0888 23.4959 13.3765C24.4983 12.1985 22.7985 10.4532 21.7524 11.6313Z" fill="#BB071F"/>
<path d="M19.6149 34.9307C19.6149 34.9307 19.4842 34.7998 19.4406 34.7126C19.4406 34.7126 19.397 34.6689 19.397 34.6253C19.3534 34.5817 19.3099 34.4944 19.2663 34.4508C18.9176 33.9272 18.1766 33.6218 17.61 34.0145C17.087 34.3635 16.7819 35.1053 17.1742 35.6725C17.5664 36.2397 18.0023 36.7197 18.4817 37.1996C18.9612 37.6359 19.7457 37.6796 20.1816 37.1996C20.6174 36.7197 20.661 35.9343 20.1816 35.498C19.9636 35.3234 19.7893 35.1053 19.6149 34.9307Z" fill="#BB071F"/>
</svg>
