<svg width="45" height="60" viewBox="0 0 45 60" fill="none" xmlns="http://www.w3.org/2000/svg">
<path d="M44.3292 17.6285C43.2395 11.7382 39.7963 6.02236 34.6533 2.79359C28.6385 -0.958772 21.1855 -0.217026 15.04 2.88085C6.06143 7.68038 -0.694259 17.3667 1.09273 27.882C2.09519 33.6415 5.62558 38.4846 10.1148 42.1061C11.9454 43.5896 14.8656 44.3749 16.3039 46.2075C16.4783 46.4693 16.6526 46.7311 16.7834 46.9929C16.827 47.0801 16.827 47.211 16.9141 47.2983C17.6551 49.3054 17.0449 52.1415 17.1756 54.1049C17.3064 55.8065 17.6115 57.6827 19.0934 58.7299C21.1855 60.2134 24.9338 59.908 27.2874 59.4716C34.5225 58.1627 28.6821 49.829 32.3433 45.6403C34.2174 43.5023 36.7889 42.1061 38.6195 39.9245C40.3629 37.8301 41.7576 35.5176 42.7601 32.987C44.7214 28.1438 45.3316 22.7771 44.3292 17.6285ZM22.0136 35.125C23.016 34.6886 23.9313 34.165 24.7594 33.5106C25.3696 33.9469 26.0234 34.2523 26.7208 34.5141C25.9362 37.6992 26.067 41.0153 26.8515 44.1132C24.4979 44.6804 22.1008 44.8985 19.66 44.8549C20.0958 42.9787 20.5317 41.1025 21.0111 39.27C21.3598 37.9174 21.8392 36.5212 22.0136 35.125ZM24.8902 30.1945C24.3236 29.3655 24.28 28.4492 24.7159 27.4893C26.2849 27.2712 26.8079 27.533 26.2849 28.2311C26.1542 28.9292 25.5876 29.6273 24.9338 30.2818C24.9338 30.2382 24.9338 30.2382 24.8902 30.1945ZM19.5728 50.178C22.6238 50.3089 25.6311 49.9599 28.5514 49.0872C28.5514 49.2617 28.5514 49.4799 28.5514 49.6544C25.6747 50.7889 22.6674 51.3124 19.5728 51.1379C19.5728 50.8761 19.6164 50.658 19.6164 50.4398C19.5728 50.3525 19.5728 50.2653 19.5728 50.178ZM27.7668 46.7747C25.021 47.5601 22.2315 47.9091 19.3113 47.7346C19.2677 47.5601 19.2241 47.3856 19.1806 47.2547C22.0136 47.3419 24.8466 47.0801 27.5925 46.4257C27.6796 46.5129 27.7232 46.6438 27.7668 46.7747ZM19.5292 54.5849C19.4856 54.2794 19.4856 53.9304 19.4421 53.5813C22.6238 53.7122 25.6747 53.2759 28.6385 52.1851C28.6385 52.4469 28.6821 52.665 28.6821 52.9268C26.1106 54.454 22.493 54.5849 19.5292 54.5849ZM24.4544 57.3337C23.4083 57.3773 22.0136 57.4646 20.9675 57.0282C23.5391 56.941 26.2849 56.6792 28.6385 55.6757C28.1591 57.2464 26.067 57.29 24.4544 57.3337ZM32.2997 42.4551C31.2972 43.2841 30.3819 44.1568 29.7282 45.1603C29.6846 45.0294 29.641 44.9422 29.5974 44.8113C29.5538 44.6804 29.5538 44.5495 29.4666 44.4186C28.5078 41.3643 28.2898 38.0483 29.118 34.9504C29.4231 34.9504 29.7281 34.9504 30.0332 34.9504C32.0817 34.7759 36.2659 32.6816 34.1302 30.0636C33.0842 28.7547 31.0357 28.9292 29.7282 29.6709C28.6821 30.2818 27.9412 31.1981 27.4617 32.2452C27.1566 32.158 26.8515 32.0271 26.5464 31.8525C26.59 31.8089 26.6336 31.7653 26.6772 31.7216C28.3334 29.8455 31.0793 25.4386 27.1566 24.3042C24.2364 23.4316 21.7085 26.3985 21.97 29.1474C22.0572 30.1509 22.4059 31.0672 22.9289 31.8089C22.5366 32.0707 22.1879 32.2889 21.8828 32.4198C21.8392 32.4198 21.7957 32.4634 21.7957 32.4634C21.0547 29.7146 18.0038 27.6639 15.4322 29.5837C12.8171 31.5471 14.7349 35.125 17.4371 35.7358C18.0909 35.8667 18.7447 35.9103 19.4421 35.8231C19.1806 37.0011 18.7447 38.1792 18.5268 39.0955C18.0909 40.7535 17.7422 42.4551 17.3064 44.1568C16.6962 43.5459 15.9117 43.0224 14.9528 42.4551C10.4635 39.8372 6.49728 36.0849 4.49237 31.1108C0.264614 20.5955 7.02031 9.90561 16.2604 4.97519C21.6649 2.27 28.1591 1.61552 33.4765 4.93156C37.8786 7.68038 40.7552 12.6108 41.8884 17.6285C43.9805 27.3148 39.7963 36.4339 32.2997 42.4551ZM30.2948 32.2016C30.7742 31.4599 31.0793 31.4599 31.1229 32.2016C30.9049 32.1143 30.5999 32.158 30.2948 32.2016ZM19.6164 33.2488C18.7011 33.5106 17.8294 33.3797 17.0449 32.8125C17.0013 30.8926 17.7422 30.6745 19.2241 32.2016C19.3985 32.5507 19.5292 32.8997 19.6164 33.2488Z" fill="#BB071F"/>
</svg>
