<svg width="127" height="127" viewBox="0 0 127 127" fill="none" xmlns="http://www.w3.org/2000/svg">
<path d="M80.6466 70.7704L77.2246 79.6826L81.7716 81.9746L92.6237 83.3668L102.899 81.9272L107.947 79.8057L105.026 70.8083C105.026 70.8083 90.2983 69.6244 90.062 69.7949C89.8256 69.9653 80.6466 70.7704 80.6466 70.7704Z" fill="white"/>
<path d="M82.8501 100.178L82.3963 100.377L81.3187 100.803L80.6475 101.059L84.9865 111.136C85.0771 111.347 85.2274 111.526 85.419 111.653C85.6105 111.779 85.8348 111.846 86.0641 111.846C86.2263 111.846 86.3869 111.814 86.5367 111.751C86.8241 111.624 87.0503 111.39 87.167 111.097C87.2836 110.805 87.2813 110.479 87.1607 110.189L82.8501 100.178Z" fill="#BB071F"/>
<path d="M97.9561 103.606L91.9534 95.5179C91.5847 95.7926 91.216 96.0578 90.8379 96.3135L96.8595 104.43C96.9246 104.514 97.0076 104.582 97.1025 104.63C97.1974 104.677 97.3017 104.703 97.4078 104.705C97.5553 104.704 97.6983 104.654 97.8142 104.563C97.9574 104.455 98.0525 104.296 98.079 104.118C98.1056 103.941 98.0614 103.76 97.9561 103.616" fill="#BB071F"/>
<path d="M72.2336 103.303L70.8913 103.502L70.3809 103.568L72.3755 114.706C72.4284 114.975 72.5737 115.217 72.786 115.39C72.9984 115.563 73.2645 115.656 73.5382 115.653H73.7462C74.0523 115.591 74.3223 115.412 74.4988 115.154C74.6753 114.896 74.7444 114.579 74.6915 114.271L72.7252 103.256L72.2336 103.303Z" fill="#BB071F"/>
<path d="M77.868 101.996L77.0645 102.223L76.1192 102.498L75.6182 102.631L78.7944 113.286C78.8673 113.531 79.0169 113.746 79.2212 113.899C79.4254 114.053 79.6735 114.136 79.9288 114.138C80.0445 114.138 80.1595 114.118 80.2691 114.081C80.5689 113.989 80.8205 113.782 80.9691 113.506C81.1178 113.229 81.1516 112.905 81.0632 112.604L77.868 101.996Z" fill="#BB071F"/>
<path d="M87.6339 98.3309L87.5016 98.113L87.2936 98.2362C86.8966 98.454 86.4996 98.6813 86.0931 98.8897L85.8662 99.0128L91.1221 108.143C91.2058 108.284 91.3248 108.401 91.4673 108.483C91.6098 108.564 91.771 108.607 91.9351 108.607C92.0972 108.604 92.2562 108.562 92.3983 108.484C92.6119 108.359 92.768 108.155 92.8332 107.915C92.8957 107.675 92.8617 107.42 92.7386 107.205L87.6339 98.3309Z" fill="#BB071F"/>
<path d="M55.2369 102.915L54.736 102.811L52.6941 114.403C52.6654 114.556 52.6672 114.712 52.6993 114.864C52.7314 115.016 52.7932 115.16 52.8811 115.287C52.9689 115.415 53.0812 115.524 53.2114 115.608C53.3415 115.692 53.487 115.749 53.6394 115.776C53.7115 115.786 53.7846 115.786 53.8568 115.776C54.1305 115.779 54.3966 115.686 54.609 115.513C54.8213 115.34 54.9666 115.098 55.0195 114.829L57.0519 103.275L56.5699 103.18C56.1224 103.104 55.6781 103.019 55.2369 102.924" fill="#BB071F"/>
<path d="M36.302 94.5425L29.2783 104.014C29.1753 104.159 29.1326 104.339 29.159 104.516C29.1854 104.692 29.279 104.852 29.4201 104.961C29.5395 105.044 29.681 105.09 29.8266 105.093C29.9346 105.095 30.0415 105.071 30.1385 105.023C30.2355 104.976 30.3198 104.905 30.3843 104.819L37.3796 95.3476C37.0109 95.0824 36.6612 94.7888 36.302 94.5142" fill="#BB071F"/>
<path d="M41.8802 98.0278L40.708 97.3364L40.4906 97.1943L34.5634 107.508C34.5012 107.616 34.4608 107.735 34.4446 107.859C34.4284 107.982 34.4367 108.108 34.4689 108.228C34.4983 108.347 34.5522 108.457 34.6271 108.554C34.702 108.65 34.7962 108.729 34.9037 108.787C35.0441 108.87 35.2037 108.916 35.3669 108.919C35.5319 108.918 35.6937 108.874 35.8364 108.791C35.979 108.708 36.0975 108.589 36.18 108.446L42.1259 98.1509L41.8802 98.0278Z" fill="#BB071F"/>
<path d="M66.9958 103.616H65.9181H64.8594L65.54 115.331C65.5617 115.698 65.7226 116.043 65.9898 116.295C66.2569 116.546 66.6101 116.686 66.9769 116.686H67.0525C67.2413 116.677 67.4265 116.631 67.5973 116.55C67.768 116.469 67.9209 116.354 68.0469 116.213C68.1728 116.072 68.2693 115.907 68.3307 115.728C68.3921 115.549 68.4171 115.359 68.4043 115.17L67.7332 103.54L66.9958 103.616Z" fill="#BB071F"/>
<path d="M46.6257 100.149C46.2098 99.9692 45.8033 99.7893 45.3968 99.5904L44.9242 99.3726L40.1976 110.435C40.0744 110.725 40.0708 111.052 40.1877 111.345C40.3046 111.638 40.5325 111.872 40.8215 111.997C40.9678 112.06 41.1254 112.093 41.2847 112.092C41.5153 112.093 41.7411 112.026 41.9343 111.9C42.1275 111.774 42.2796 111.594 42.3718 111.382L47.0984 100.348L46.6257 100.149Z" fill="#BB071F"/>
<path d="M60.4264 103.464L59.6512 103.388L58.9612 115.256C58.9483 115.448 58.9746 115.64 59.0383 115.822C59.102 116.003 59.2019 116.17 59.3318 116.312C59.4618 116.453 59.619 116.567 59.7942 116.646C59.9694 116.725 60.1588 116.768 60.3508 116.771C60.7161 116.772 61.0679 116.633 61.3348 116.383C61.6017 116.133 61.7636 115.791 61.7877 115.426L62.4683 103.616H61.7309L60.3886 103.512" fill="#BB071F"/>
<path d="M50.4433 101.608L49.687 101.362L46.2745 112.727C46.2296 112.877 46.2148 113.034 46.231 113.19C46.2471 113.345 46.2939 113.496 46.3686 113.633C46.4433 113.771 46.5445 113.892 46.6663 113.99C46.788 114.088 46.9279 114.161 47.078 114.204C47.1845 114.241 47.2962 114.26 47.4088 114.261C47.6641 114.26 47.9122 114.176 48.1164 114.022C48.3206 113.869 48.4702 113.654 48.5432 113.409L51.9463 102.043L51.4737 101.892C51.1145 101.788 50.7647 101.665 50.4149 101.551" fill="#BB071F"/>
<path d="M63.5188 107.224C63.351 107.224 63.186 107.181 63.039 107.1C62.892 107.019 62.7677 106.902 62.6774 106.76L55.512 95.3949C55.4241 95.2405 55.3779 95.0658 55.3779 94.8881C55.3779 94.7104 55.4241 94.5358 55.512 94.3815C55.5984 94.2236 55.7257 94.092 55.8804 94.0003C56.035 93.9087 56.2115 93.8604 56.3912 93.8606H70.6748C70.8542 93.8558 71.0312 93.9022 71.1852 93.9944C71.3392 94.0866 71.4638 94.2209 71.5445 94.3815C71.6403 94.533 71.6911 94.7087 71.6911 94.8881C71.6911 95.0675 71.6403 95.2433 71.5445 95.3949L64.3885 106.76C64.2982 106.902 64.1739 107.019 64.0269 107.1C63.8799 107.181 63.7149 107.224 63.5471 107.224" fill="white"/>
<path d="M63.5188 107.224C63.351 107.224 63.186 107.181 63.039 107.1C62.892 107.019 62.7677 106.902 62.6774 106.76L55.512 95.3949C55.4241 95.2405 55.3779 95.0658 55.3779 94.8881C55.3779 94.7104 55.4241 94.5358 55.512 94.3815C55.5984 94.2236 55.7257 94.092 55.8804 94.0003C56.035 93.9087 56.2115 93.8604 56.3912 93.8606H70.6748C70.8542 93.8558 71.0312 93.9022 71.1852 93.9944C71.3392 94.0866 71.4638 94.2209 71.5445 94.3815C71.6403 94.533 71.6911 94.7087 71.6911 94.8881C71.6911 95.0675 71.6403 95.2433 71.5445 95.3949L64.3885 106.76C64.2982 106.902 64.1739 107.019 64.0269 107.1C63.8799 107.181 63.7149 107.224 63.5471 107.224" stroke="#BB071F" stroke-width="3.025" stroke-miterlimit="10"/>
<path d="M56.5597 87.4582C39.7237 87.4582 25.5818 86.1512 14.361 83.5561C13.1604 83.272 12.4704 82.3628 12.8958 81.5198C13.2076 81.0616 13.6568 80.7145 14.1785 80.5289C14.7003 80.3434 15.2674 80.3289 15.7979 80.4875C30.6582 83.935 51.9655 85.0147 77.3944 83.6319C96.6882 82.5806 111.662 80.4686 111.813 80.4401C113.052 80.2697 114.262 80.8285 114.517 81.6998C114.772 82.5711 113.969 83.4235 112.721 83.594C112.569 83.594 97.3216 85.7628 77.7442 86.8331C70.2762 87.2435 63.2147 87.4487 56.5597 87.4487" fill="#BB071F"/>
<path d="M92.7664 83.9256C91.0365 83.9256 75.9209 83.8024 75.9209 79.5026C75.923 79.3167 75.9718 79.1343 76.0627 78.9722L78.511 71.8121C79.0593 68.3742 90.4409 68.1942 92.7664 68.1942C95.0918 68.1942 106.577 68.3742 107.041 71.8501L109.555 79.1522C109.593 79.2618 109.612 79.3771 109.612 79.4931C109.612 83.8024 94.4868 83.9256 92.7664 83.9256ZM78.0479 79.5215C78.927 80.4118 84.1829 81.823 92.7475 81.823C101.766 81.823 106.681 80.3455 107.475 79.5026L105.027 72.4183C105.023 72.3489 105.023 72.2793 105.027 72.2099C104.432 71.5375 100.3 70.3157 92.7947 70.3157C85.2889 70.3157 81.1768 71.5564 80.5718 72.2099C80.5593 72.325 80.5273 72.4371 80.4773 72.5414L78.0479 79.5215Z" fill="#BB071F"/>
<path d="M81.0732 71.6795C82.1225 72.3141 86.1306 73.318 92.8518 73.318C99.573 73.318 103.562 72.3141 104.611 71.6795C103.562 71.0165 99.5541 70.0221 92.8518 70.0221C86.1495 70.0221 82.1225 71.0165 81.0732 71.6795Z" fill="#BB071F"/>
<path d="M102.55 70.7987C102.449 70.7887 102.348 70.7887 102.247 70.7987C102.247 70.4294 101.699 70.1358 101.047 70.1358C100.924 70.1358 100.82 70.1358 100.697 70.1358C100.705 70.1016 100.705 70.0658 100.697 70.0316C100.697 69.6527 100.167 69.3497 99.4869 69.3497C99.3837 69.3306 99.278 69.3306 99.1749 69.3497C99.1787 69.3119 99.1787 69.2738 99.1749 69.236C99.1749 68.8572 98.6266 68.5541 97.9649 68.5541H97.6435C97.6435 68.5541 97.6435 68.4878 97.6435 68.4405C97.6435 68.0711 97.0858 67.7681 96.4241 67.7681C96.3149 67.763 96.2057 67.7791 96.1026 67.8154C96.1073 67.765 96.1073 67.7142 96.1026 67.6638C96.1026 67.3229 95.5638 67.0008 94.8927 67.0008C94.7391 67.0022 94.5865 67.0245 94.4389 67.0672C94.4389 66.6978 93.8906 66.3947 93.2194 66.3947C93.0888 66.3947 92.9587 66.4106 92.8319 66.4421C92.5689 66.3307 92.2855 66.2759 92 66.2811C91.3477 66.2811 90.8183 66.5841 90.7994 66.944C90.6993 66.9278 90.5971 66.9278 90.4969 66.944C89.8352 66.944 89.268 67.2566 89.268 67.6165C89.268 67.6165 89.268 67.7017 89.268 67.7301C89.161 67.7246 89.0537 67.7246 88.9467 67.7301C88.2755 67.7301 87.7366 68.0427 87.7366 68.4026C87.7366 68.4026 87.7366 68.4878 87.7366 68.5352C87.7366 68.5826 87.5381 68.5352 87.4152 68.5352C86.744 68.5352 86.1863 68.8383 86.1863 69.2266C86.1807 69.2642 86.1807 69.3025 86.1863 69.3402C86.0731 69.3309 85.9593 69.3309 85.846 69.3402C85.1843 69.3402 84.6454 69.6244 84.6454 70.0127C84.6403 70.0472 84.6403 70.0823 84.6454 70.1168H84.3335C83.6624 70.1168 83.1329 70.382 83.114 70.7514H82.8115C82.1404 70.7514 81.6016 71.0355 81.6016 71.4144C81.6016 71.7932 82.1404 72.0868 82.8115 72.0868C83.0304 72.1073 83.2509 72.072 83.4525 71.9842C83.6542 71.8965 83.8304 71.7591 83.9648 71.5848L101.311 71.8406C101.607 72.0957 101.99 72.2249 102.38 72.2005C103.051 72.2005 103.59 71.9068 103.59 71.509C103.59 71.1113 103.051 70.865 102.38 70.865" fill="#BB071F"/>
<path d="M49.0167 15.6492C49.0167 15.6492 43.5528 9.69188 42.8438 10.478C42.1348 11.2641 42.3711 13.7739 42.3711 14.6358C42.4194 16.2552 42.6028 17.8677 42.9194 19.4565C43.1558 19.9301 42.8627 20.0342 42.0781 23.4817C41.1328 27.4595 42.2577 27.2133 42.5035 29.9883C41.5148 33.0447 40.7192 36.1605 40.1213 39.3172C39.725 42.9654 39.725 46.6459 40.1213 50.2941C40.594 54.1393 40.594 54.6791 40.594 54.6791C40.594 54.6791 37.6729 62.0097 37.758 64.9078C37.8431 67.8059 38.5993 69.6433 39.9228 73.1097C41.2462 76.576 41.6905 76.8981 41.6905 76.8981C41.6905 76.8981 32.3225 80.1466 28.6452 77.3243C24.9679 74.5019 23.8525 70.0506 27.2272 69.2929C28.891 68.9235 31.4244 68.0427 30.8194 66.8683C30.0442 65.3624 22.3116 64.5952 21.5932 69.6149C20.8748 74.6345 23.8524 79.7015 26.4426 81.2926C29.3757 83.152 32.8337 84.0032 36.2928 83.7172C38.2685 83.4899 38.9586 83.3289 38.9586 83.3289C39.0222 83.7147 39.1661 84.0828 39.3811 84.4091C39.5961 84.7355 39.8773 85.0129 40.2063 85.2231C41.3407 85.8008 43.9876 85.1568 43.9876 85.1568C43.9876 85.1568 44.4792 84.437 44.4792 84.7496C44.4792 85.0621 45.5001 85.4504 47.4569 85.5356C48.5247 85.6195 49.5919 85.3679 50.5103 84.8159L51.3327 84.5033C51.3327 84.5033 51.3327 85.9239 53.488 86.3122C54.2904 86.5561 55.1387 86.6081 55.9647 86.4638C56.4374 86.4638 58.8763 85.6872 59.1126 84.437C59.3489 83.1868 59.2828 84.5601 59.6704 84.5601C60.0579 84.5601 62.9128 84.2476 62.9128 84.2476H67.8C67.8 84.2476 71.8649 84.4654 72.5266 84.0771C73.1883 83.6888 74.9372 82.2965 72.7818 80.3455C72.0926 79.8572 71.2476 79.6413 70.4091 79.7394C70.4091 79.7394 69.0857 80.0709 69.8703 78.9817C70.6549 77.8925 74.7954 71.689 74.7954 67.5407C74.7954 63.3924 74.9561 60.4091 73.6232 58.7611C72.2903 57.1132 71.43 56.0145 71.43 56.0145C70.7748 52.571 69.826 49.1901 68.5941 45.909C67.92 44.184 67.0811 42.5283 66.089 40.9651C65.9065 39.0699 65.5906 37.1899 65.1437 35.3393C64.5954 33.5398 63.7069 30.6986 63.7069 30.6986C63.7069 30.6986 65.0398 27.2511 64.1795 25.2148C63.6389 23.8639 63.3197 22.4343 63.2342 20.9813C64.0488 18.364 64.6805 15.693 65.1248 12.9878C65.2666 10.9515 64.1039 11.4156 62.9317 12.3627C62.1322 13.0186 61.3744 13.724 60.6629 14.4748C60.6629 14.4748 58.8669 15.6491 58.3186 15.3366C55.8342 14.7882 53.2999 14.4994 50.7561 14.4748C49.7115 14.6772 48.6794 14.9397 47.6649 15.2609" fill="white"/>
<path d="M49.0167 15.6492C49.0167 15.6492 43.5528 9.69188 42.8438 10.478C42.1348 11.2641 42.3711 13.7739 42.3711 14.6358C42.4194 16.2552 42.6028 17.8677 42.9194 19.4565C43.1558 19.9301 42.8627 20.0342 42.0781 23.4817C41.1328 27.4595 42.2577 27.2133 42.5035 29.9883C41.5148 33.0447 40.7192 36.1605 40.1213 39.3172C39.725 42.9654 39.725 46.6459 40.1213 50.2941C40.594 54.1393 40.594 54.6791 40.594 54.6791C40.594 54.6791 37.6729 62.0097 37.758 64.9078C37.8431 67.8059 38.5993 69.6433 39.9228 73.1097C41.2462 76.576 41.6905 76.8981 41.6905 76.8981C41.6905 76.8981 32.3225 80.1466 28.6452 77.3243C24.9679 74.5019 23.8525 70.0506 27.2272 69.2929C28.891 68.9235 31.4244 68.0427 30.8194 66.8683C30.0442 65.3624 22.3116 64.5952 21.5932 69.6149C20.8748 74.6345 23.8524 79.7015 26.4426 81.2926C29.3757 83.152 32.8337 84.0032 36.2928 83.7172C38.2685 83.4899 38.9586 83.3289 38.9586 83.3289C39.0222 83.7147 39.1661 84.0828 39.3811 84.4091C39.5961 84.7355 39.8773 85.0129 40.2063 85.2231C41.3407 85.8008 43.9876 85.1568 43.9876 85.1568C43.9876 85.1568 44.4792 84.437 44.4792 84.7496C44.4792 85.0621 45.5001 85.4504 47.4569 85.5356C48.5247 85.6195 49.5919 85.3679 50.5103 84.8159L51.3327 84.5033C51.3327 84.5033 51.3327 85.9239 53.488 86.3122C54.2904 86.5561 55.1387 86.6081 55.9647 86.4638C56.4374 86.4638 58.8763 85.6872 59.1126 84.437C59.3489 83.1868 59.2828 84.5601 59.6704 84.5601C60.0579 84.5601 62.9128 84.2476 62.9128 84.2476H67.8C67.8 84.2476 71.8649 84.4654 72.5266 84.0771C73.1883 83.6888 74.9372 82.2965 72.7818 80.3455C72.0926 79.8572 71.2476 79.6413 70.4091 79.7394C70.4091 79.7394 69.0857 80.0709 69.8703 78.9817C70.6549 77.8925 74.7954 71.689 74.7954 67.5407C74.7954 63.3924 74.9561 60.4091 73.6232 58.7611C72.2903 57.1132 71.43 56.0145 71.43 56.0145C70.7748 52.571 69.826 49.1901 68.5941 45.909C67.92 44.184 67.0811 42.5283 66.089 40.9651C65.9065 39.0699 65.5906 37.1899 65.1437 35.3393C64.5954 33.5398 63.7069 30.6986 63.7069 30.6986C63.7069 30.6986 65.0398 27.2511 64.1795 25.2148C63.6389 23.8639 63.3197 22.4343 63.2342 20.9813C64.0488 18.364 64.6805 15.693 65.1248 12.9878C65.2666 10.9515 64.1039 11.4156 62.9317 12.3627C62.1322 13.0186 61.3744 13.724 60.6629 14.4748C60.6629 14.4748 58.8669 15.6491 58.3186 15.3366C55.8342 14.7882 53.2999 14.4994 50.7561 14.4748C49.7115 14.6772 48.6794 14.9397 47.6649 15.2609" stroke="#BB071F" stroke-width="2.5" stroke-miterlimit="10"/>
<path d="M54.6026 85.6207C53.8062 85.6472 53.0152 85.4815 52.296 85.1377C51.7922 84.8788 51.3822 84.4681 51.1239 83.9633C49.8688 84.5588 48.4949 84.86 47.1063 84.8441C45.4142 84.8441 43.7126 84.6073 43.1076 82.7889C42.8875 82.2624 42.7943 81.6914 42.8354 81.1221C42.8764 80.5529 43.0506 80.0012 43.3439 79.5119C43.6485 79.097 44.0329 78.7475 44.4745 78.484C44.9162 78.2205 45.406 78.0483 45.9152 77.9776C46.491 77.1859 46.7383 76.2015 46.6052 75.231C46.5391 72.5602 43.7693 65.4569 42.2474 62.2273C42.1358 61.9925 42.1219 61.7228 42.2088 61.4777C42.2956 61.2326 42.4761 61.0321 42.7106 60.9203C42.945 60.8085 43.2141 60.7947 43.4588 60.8817C43.7034 60.9687 43.9035 61.1495 44.0151 61.3844C45.2062 63.8847 48.4864 71.8025 48.5715 75.1742C48.6566 78.5458 46.9644 79.6729 46.7754 79.7771C46.6559 79.8425 46.5237 79.8813 46.3878 79.8908C45.8406 79.94 45.3331 80.1976 44.9699 80.6106C44.8547 80.8532 44.795 81.1185 44.795 81.3871C44.795 81.6558 44.8547 81.9211 44.9699 82.1638C45.0928 82.5142 45.1967 82.8173 47.1535 82.8741C48.4139 82.8857 49.6543 82.5586 50.7457 81.927C50.7701 81.0396 51.0102 80.1716 51.4452 79.3982C51.5398 79.1046 51.6343 78.83 51.7383 78.5743C52.1667 77.443 52.434 76.257 52.5324 75.051C52.5324 74.3407 52.5985 73.6115 52.6269 72.958C52.6836 71.5563 52.7403 70.2209 52.8065 69.1696C52.7639 67.8704 52.5897 66.5788 52.2866 65.3149C52.2176 65.0709 52.1763 64.8199 52.1637 64.5667C52.145 64.3538 52.1887 64.14 52.2894 63.9516C52.3901 63.7632 52.5436 63.6083 52.7308 63.5059C52.891 63.4155 53.0717 63.368 53.2555 63.368C53.4394 63.368 53.6201 63.4155 53.7802 63.5059C54.6593 64.0931 54.9807 66.8303 54.8295 68.535C54.8295 68.7245 54.8106 68.9423 54.7727 69.1885C54.7727 69.5011 54.7727 69.8231 54.7727 70.1356C54.7727 70.4482 54.7727 70.7891 54.7727 71.2721C54.7727 72.3139 54.716 73.6967 54.5648 75.1363C54.423 77.9776 54.3284 78.7163 54.1205 79.0952C54.0676 79.1953 53.9971 79.2852 53.9125 79.3604C53.691 79.5846 53.4945 79.8323 53.3264 80.0991C53.0712 80.9609 52.8821 81.9933 52.797 82.3627C52.8189 82.5355 52.8537 82.7064 52.901 82.8741C52.9278 82.9691 52.9758 83.0569 53.0413 83.1307C53.1067 83.2045 53.1881 83.2625 53.2791 83.3003C54.5197 83.685 55.8545 83.6315 57.0604 83.1488C58.5729 82.6184 59.0644 82.3816 58.8187 81.0651C58.743 80.6674 58.6674 80.3738 58.5918 80.118C58.4109 79.5029 58.3186 78.8651 58.3177 78.2238C58.3177 77.4472 58.9321 76.0076 60.1138 73.3084C60.9023 71.6053 61.5965 69.86 62.1934 68.0804C62.4014 67.3322 62.685 66.4704 62.9875 65.5706C63.8288 63.0608 64.8781 59.888 64.812 57.3214C64.7967 55.74 64.8693 54.1591 65.0294 52.5859C65.208 51.0138 65.2429 49.4287 65.1334 47.8504C65.1204 47.7216 65.1327 47.5916 65.1699 47.4677C65.207 47.3438 65.2681 47.2283 65.3498 47.1281C65.4314 47.0278 65.5319 46.9446 65.6456 46.8833C65.7593 46.822 65.884 46.7837 66.0125 46.7707C66.141 46.7576 66.2708 46.77 66.3945 46.8072C66.5182 46.8444 66.6333 46.9057 66.7334 46.9875C66.8335 47.0693 66.9165 47.17 66.9777 47.2839C67.0389 47.3978 67.0771 47.5227 67.0901 47.6514C67.2166 49.3589 67.1818 51.0744 66.9862 52.7753C66.8309 54.276 66.7615 55.7843 66.7782 57.2929C66.8444 60.2573 65.7384 63.5628 64.8876 66.2146C64.5946 67.0954 64.311 67.9289 64.1219 68.6297C63.5057 70.5021 62.7796 72.3363 61.9476 74.1229C61.3073 75.4584 60.7639 76.8384 60.3217 78.2522C60.3182 78.7375 60.3916 79.2202 60.5391 79.6824C60.6148 79.9854 60.6998 80.3264 60.7849 80.781C61.3521 83.8307 59.1307 84.5694 57.7978 85.0619C56.7992 85.4048 55.7526 85.587 54.6971 85.6017" fill="#BB071F"/>
</svg>
