<svg width="127" height="127" viewBox="0 0 127 127" fill="none" xmlns="http://www.w3.org/2000/svg">
<path d="M73.9612 29.6332C73.8584 29.7492 73.7795 29.8843 73.7289 30.0309C73.6783 30.1774 73.6569 30.3324 73.6662 30.4872C73.6754 30.642 73.7149 30.7935 73.7825 30.9329C73.8502 31.0724 73.9446 31.1972 74.0603 31.3001C74.1761 31.403 74.3109 31.4821 74.4572 31.5328C74.6034 31.5835 74.7582 31.6049 74.9127 31.5957C75.0672 31.5864 75.2184 31.5468 75.3576 31.4791C75.4968 31.4113 75.6213 31.3167 75.7241 31.2007L77.1124 29.6332V39.4138C77.1358 39.711 77.2702 39.9884 77.4887 40.1907C77.7072 40.393 77.9938 40.5054 78.2913 40.5054C78.5888 40.5054 78.8754 40.393 79.0939 40.1907C79.3125 39.9884 79.4468 39.711 79.4703 39.4138V29.6332L80.8659 31.2007C80.9686 31.3167 81.0931 31.4113 81.2324 31.4791C81.3716 31.5468 81.5227 31.5864 81.6772 31.5957C81.8317 31.6049 81.9865 31.5835 82.1328 31.5328C82.279 31.4821 82.4139 31.403 82.5296 31.3001C82.6454 31.1972 82.7398 31.0724 82.8074 30.9329C82.875 30.7935 82.9146 30.642 82.9238 30.4872C82.933 30.3324 82.9117 30.1774 82.8611 30.0309C82.8105 29.8843 82.7315 29.7492 82.6288 29.6332L79.1764 25.7475C79.0649 25.6243 78.9288 25.5258 78.777 25.4584C78.6252 25.391 78.461 25.3562 78.295 25.3562C78.1289 25.3562 77.9647 25.391 77.8129 25.4584C77.6611 25.5258 77.5251 25.6243 77.4135 25.7475L73.9612 29.6332Z" fill="#BB071F"/>
<path d="M59.7469 34.3065C59.6339 34.4207 59.5453 34.5568 59.4865 34.7065C59.4277 34.8562 59.3999 35.0163 59.4049 35.1771C59.4098 35.3378 59.4474 35.4959 59.5153 35.6417C59.5832 35.7874 59.68 35.9178 59.7999 36.0249C59.9197 36.1319 60.06 36.2134 60.2123 36.2643C60.3646 36.3153 60.5256 36.3347 60.6856 36.3212C60.8456 36.3078 61.0012 36.2619 61.1429 36.1863C61.2846 36.1106 61.4095 36.0069 61.5098 35.8814L62.9055 34.3138V44.087C62.8927 44.25 62.9136 44.4138 62.967 44.5683C63.0204 44.7227 63.1052 44.8644 63.2159 44.9845C63.3266 45.1045 63.461 45.2003 63.6104 45.2658C63.7599 45.3314 63.9213 45.3652 64.0844 45.3652C64.2476 45.3652 64.409 45.3314 64.5585 45.2658C64.7079 45.2003 64.8423 45.1045 64.953 44.9845C65.0637 44.8644 65.1485 44.7227 65.2019 44.5683C65.2553 44.4138 65.2762 44.25 65.2634 44.087V34.3138L66.6517 35.8814C66.8649 36.0969 67.1525 36.2222 67.4552 36.2316C67.7579 36.2409 68.0527 36.1336 68.2787 35.9316C68.5048 35.7297 68.6449 35.4486 68.6702 35.1462C68.6954 34.8438 68.604 34.5433 68.4146 34.3065L64.9622 30.4207C64.8501 30.2985 64.7138 30.2009 64.5621 30.1342C64.4104 30.0674 64.2465 30.033 64.0808 30.033C63.9151 30.033 63.7512 30.0674 63.5994 30.1342C63.4477 30.2009 63.3115 30.2985 63.1993 30.4207L59.7469 34.3065Z" fill="#BB071F"/>
<path d="M84.7225 44.6905C84.6095 44.8047 84.5209 44.9408 84.4621 45.0905C84.4033 45.2402 84.3755 45.4003 84.3804 45.5611C84.3854 45.7219 84.423 45.88 84.4909 46.0257C84.5588 46.1715 84.6556 46.3019 84.7754 46.4089C84.8953 46.516 85.0356 46.5975 85.1879 46.6484C85.3402 46.6994 85.5012 46.7187 85.6612 46.7053C85.8212 46.6919 85.9768 46.6459 86.1185 46.5703C86.2602 46.4947 86.385 46.3909 86.4854 46.2654L87.8737 44.6979V54.4711C87.8609 54.634 87.8818 54.7979 87.9352 54.9523C87.9887 55.1068 88.0734 55.2485 88.1841 55.3686C88.2949 55.4886 88.4292 55.5844 88.5787 55.6499C88.7281 55.7154 88.8895 55.7492 89.0527 55.7492C89.2158 55.7492 89.3772 55.7154 89.5267 55.6499C89.6762 55.5844 89.8105 55.4886 89.9212 55.3686C90.032 55.2485 90.1167 55.1068 90.1701 54.9523C90.2235 54.7979 90.2445 54.634 90.2316 54.4711V44.6979L91.6273 46.2654C91.8405 46.4809 92.1281 46.6063 92.4308 46.6156C92.7335 46.625 93.0283 46.5176 93.2543 46.3157C93.4804 46.1138 93.6205 45.8326 93.6457 45.5302C93.671 45.2279 93.5796 44.9273 93.3902 44.6905L89.9378 40.8048C89.8257 40.6825 89.6894 40.5849 89.5377 40.5182C89.386 40.4514 89.2221 40.417 89.0563 40.417C88.8906 40.417 88.7267 40.4514 88.575 40.5182C88.4233 40.5849 88.287 40.6825 88.1749 40.8048L84.7225 44.6905Z" fill="#BB071F"/>
<path d="M40.4514 54.0662C40.6649 53.6635 41.0234 53.3573 41.454 53.2097C41.8847 53.0621 42.3553 53.0842 42.7703 53.2715C43.1853 53.4588 43.5136 53.7972 43.6886 54.2182C43.8637 54.6391 43.8723 55.111 43.7128 55.5381C43.7128 55.597 40.6717 62.5442 44.6236 67.1733C44.794 67.3488 44.9267 67.5575 45.0137 67.7864C45.1006 68.0153 45.1399 68.2595 45.1292 68.5042C45.1184 68.7488 45.0578 68.9887 44.9511 69.209C44.8444 69.4293 44.6938 69.6255 44.5087 69.7854C44.3235 69.9452 44.1077 70.0655 43.8744 70.1387C43.6411 70.2119 43.3954 70.2365 43.1523 70.2111C42.9092 70.1856 42.6739 70.1106 42.4607 69.9906C42.2476 69.8707 42.0613 69.7083 41.9131 69.5135C36.4995 63.1403 40.2898 54.4416 40.4514 54.0662ZM34.1416 61.72C34.1416 69.3443 40.8113 75.5188 49.0235 75.5188C57.2358 75.5188 63.9054 69.3443 63.9054 61.72C63.9054 54.0957 51.7413 35.7782 49.5744 36.08C47.7454 36.3449 34.1416 54.0957 34.1416 61.72Z" fill="#BB071F"/>
<path d="M40.9066 54.574C40.745 54.9273 37.0796 63.2875 42.2655 69.359C42.4456 69.5562 42.6939 69.6774 42.9599 69.6979C43.226 69.7184 43.4898 69.6367 43.6979 69.4694C43.805 69.3779 43.8921 69.2654 43.954 69.1388C44.016 69.0122 44.0513 68.8742 44.0578 68.7334C44.0665 68.6003 44.0489 68.4669 44.006 68.3406C43.9632 68.2143 43.8959 68.0977 43.8081 67.9975C39.4669 62.9195 42.7283 55.4866 42.765 55.3909C42.8745 55.1428 42.8819 54.8616 42.7856 54.608C42.6893 54.3545 42.4972 54.1493 42.2508 54.0368L41.8321 53.9485C41.6341 53.9524 41.4415 54.0135 41.2773 54.1245C41.1131 54.2355 40.9844 54.3916 40.9066 54.574ZM41.0682 70.382C35.2506 63.5598 39.298 54.3165 39.4743 53.9191C39.7747 53.3204 40.2943 52.8613 40.9247 52.6375C41.555 52.4136 42.2473 52.4425 42.8569 52.7179C43.4665 52.9934 43.9463 53.4942 44.1961 54.1157C44.4459 54.7373 44.4464 55.4314 44.1974 56.0533C44.1974 56.1195 41.3547 62.7209 45.0054 66.9966C45.2311 67.2555 45.4029 67.5569 45.5109 67.8832C45.6188 68.2095 45.6607 68.5541 45.634 68.8968C45.6073 69.2395 45.5126 69.5734 45.3555 69.879C45.1984 70.1845 44.982 70.4556 44.7189 70.6763C44.4605 70.9024 44.1597 71.0746 43.834 71.1828C43.5083 71.2909 43.1644 71.3328 42.8223 71.3061C42.4803 71.2794 42.147 71.1846 41.842 71.0271C41.537 70.8697 41.2665 70.6528 41.0462 70.3893L41.0682 70.382ZM34.5969 61.9849C34.5969 69.2486 40.9948 75.1508 48.8618 75.1508C56.7288 75.1508 63.1267 69.2633 63.1267 61.9849C63.1267 54.5225 51.5649 37.7726 49.5008 36.8674C47.3486 38.0744 34.6115 54.6918 34.6115 61.9849H34.5969ZM33.0176 61.9849C33.0176 54.3459 46.6875 35.6532 49.3025 35.2778C49.6405 35.2772 49.9747 35.3491 50.2826 35.4887C50.5905 35.6284 50.8649 35.8325 51.0874 36.0873C54.7602 39.3181 64.6986 54.7728 64.6986 61.9849C64.6986 70.117 57.5882 76.7036 48.8618 76.7036C40.1353 76.7036 33.0323 70.117 33.0323 61.9849H33.0176Z" fill="#BB071F"/>
<path d="M84.6125 81.2297C84.3467 81.446 84.0138 81.5624 83.6714 81.5589C83.3289 81.5554 82.9985 81.4321 82.7372 81.2104C82.4758 80.9887 82.3 80.6825 82.24 80.3448C82.1801 80.007 82.2398 79.6588 82.4089 79.3604C85.5748 75.6807 83.1434 70.0729 83.1434 70.0214C83.0766 69.6938 83.123 69.3532 83.2752 69.0555C83.4273 68.7579 83.6761 68.521 83.9805 68.384C84.2849 68.2469 84.6269 68.2178 84.95 68.3014C85.2732 68.385 85.5583 68.5763 85.7584 68.8439C85.92 69.1383 88.9684 76.1223 84.6125 81.2297ZM78.4717 54.4196C76.7382 54.1767 66.9834 68.866 66.9834 74.9743C66.9834 81.0825 72.3235 86.0133 78.9124 86.0133C85.5013 86.0133 90.8415 81.0605 90.8415 74.9743C90.8415 68.8881 79.9408 54.633 78.4717 54.4196Z" fill="#BB071F"/>
<path d="M84.6639 68.7629L84.3333 68.8365C84.2353 68.8803 84.1468 68.9431 84.073 69.0212C83.9992 69.0993 83.9416 69.1913 83.9034 69.2918C83.8651 69.3923 83.8471 69.4994 83.8503 69.6069C83.8535 69.7144 83.8779 69.8203 83.922 69.9183C83.922 69.9772 86.559 75.953 83.0846 80.0301C83.0115 80.1114 82.9561 80.207 82.922 80.3109C82.8878 80.4148 82.8757 80.5247 82.8863 80.6336C82.8866 80.8055 82.9416 80.9727 83.0432 81.1112C83.1449 81.2497 83.2879 81.3522 83.4515 81.4039C83.6151 81.4555 83.7909 81.4537 83.9534 81.3985C84.1159 81.3434 84.2567 81.2379 84.3554 81.0972C88.5129 76.2327 85.5747 69.5283 85.4498 69.2486C85.3816 69.0988 85.2704 68.9726 85.1305 68.8861C84.9906 68.7997 84.8282 68.7568 84.6639 68.7629ZM83.7016 82.65C83.2057 82.6513 82.7259 82.4737 82.3501 82.1496C82.1408 81.9722 81.9687 81.755 81.8438 81.5105C81.7189 81.2661 81.6437 80.9992 81.6225 80.7254C81.6013 80.4516 81.6346 80.1763 81.7204 79.9154C81.8062 79.6546 81.9428 79.4134 82.1223 79.2059C85.0605 75.7764 82.7908 70.485 82.7687 70.4335C82.5616 69.933 82.5572 69.3714 82.7565 68.8678C82.9559 68.3642 83.3433 67.9582 83.8365 67.736C84.3297 67.5138 84.8898 67.493 85.3981 67.6778C85.9065 67.8627 86.3229 68.2387 86.559 68.7261C86.6986 69.0426 89.9453 76.4535 85.2809 81.9215C85.0854 82.1495 84.8432 82.3327 84.5706 82.4584C84.2981 82.5841 84.0017 82.6495 83.7016 82.65ZM78.5157 55.0451C76.863 55.781 67.6003 69.1971 67.6003 75.1803C67.6003 81.0015 72.7422 85.741 79.0372 85.741C85.3323 85.741 90.4668 81.0015 90.4668 75.1803C90.4668 69.359 80.2566 56.0165 78.5157 55.0451ZM79.0372 87.0067C72.037 87.0067 66.3369 81.7006 66.3369 75.1803C66.3369 69.4032 74.2774 57.01 77.2523 54.4195C77.4285 54.2143 77.6473 54.05 77.8935 53.9381C78.1396 53.8263 78.4071 53.7696 78.6773 53.7719C80.7781 54.0737 91.7302 69.0573 91.7302 75.1803C91.7302 81.708 86.0375 87.0141 79.0372 87.0141V87.0067Z" fill="#BB071F"/>
<path d="M54.8636 88.1181C54.9937 87.8742 55.2117 87.689 55.4731 87.6001C55.7346 87.5112 56.0199 87.5254 56.2714 87.6396C56.5228 87.7539 56.7214 87.9597 56.8269 88.2153C56.9324 88.4709 56.937 88.7571 56.8395 89.0159C56.8395 89.0527 55.0032 93.2623 57.3978 96.0588C57.5322 96.2169 57.6188 96.4101 57.6472 96.6158C57.6757 96.8215 57.6449 97.031 57.5584 97.2197C57.472 97.4084 57.3335 97.5684 57.1592 97.6809C56.985 97.7934 56.7823 97.8536 56.5751 97.8545C56.4192 97.8543 56.2651 97.8206 56.1233 97.7559C55.9814 97.6912 55.8549 97.5968 55.7524 97.4792C52.4837 93.6155 54.7901 88.3462 54.8636 88.1181ZM51.0439 92.7545C51.0439 97.3688 55.084 101.107 60.0569 101.107C65.0297 101.107 69.0697 97.3688 69.0697 92.7545C69.0697 88.1402 61.7243 77.0423 60.3947 77.2263C59.3076 77.3882 51.066 88.1622 51.066 92.7545H51.0439Z" fill="#BB071F"/>
<path d="M55.171 88.4271C55.0755 88.6405 52.8572 93.7038 55.9937 97.3761C56.0468 97.438 56.1115 97.4887 56.1841 97.5255C56.2568 97.5623 56.3359 97.5844 56.4171 97.5906C56.4983 97.5967 56.5798 97.5868 56.6572 97.5613C56.7345 97.5359 56.8061 97.4955 56.8678 97.4423C56.9296 97.3892 56.9802 97.3244 57.017 97.2516C57.0537 97.1788 57.0758 97.0995 57.0819 97.0181C57.0881 96.9368 57.0781 96.8551 57.0528 96.7776C57.0274 96.7001 56.987 96.6284 56.9339 96.5665C54.3043 93.4903 56.2729 88.9791 56.2949 88.9349C56.3619 88.7856 56.3671 88.6157 56.3093 88.4625C56.2514 88.3094 56.1353 88.1855 55.9864 88.118L55.7366 88.0591C55.6171 88.0598 55.5002 88.0948 55.4 88.16C55.2997 88.2252 55.2203 88.3179 55.171 88.4271ZM55.2739 97.9943C51.748 93.8583 54.2014 88.2652 54.3043 88.0223C54.4821 87.6519 54.7974 87.3657 55.1829 87.225C55.5684 87.0843 55.9936 87.1003 56.3675 87.2693C56.7415 87.4384 57.0347 87.7473 57.1844 88.13C57.3342 88.5127 57.3286 88.9389 57.169 89.3176C57.169 89.3176 55.4428 93.3505 57.6538 95.941C57.7902 96.0975 57.8942 96.2795 57.9598 96.4766C58.0254 96.6737 58.0512 96.8819 58.0358 97.0891C58.0123 97.4 57.8973 97.6969 57.7053 97.9422C57.5132 98.1876 57.2528 98.3703 56.957 98.4673C56.6613 98.5642 56.3434 98.571 56.0438 98.4868C55.7441 98.4026 55.4762 98.2312 55.2739 97.9943ZM51.3514 92.909C51.3514 97.3246 55.2298 100.879 59.9897 100.879C64.7495 100.879 68.6279 97.3025 68.6279 92.909C68.6279 88.3903 61.6277 78.2418 60.379 77.6972C59.0641 78.4331 51.3514 88.5007 51.3514 92.9163V92.909ZM50.3965 92.909C50.3965 88.2799 58.6748 76.9612 60.2541 76.7184C60.4584 76.7208 60.66 76.7659 60.8459 76.8508C61.0318 76.9357 61.198 77.0585 61.3339 77.2114C63.5816 79.169 69.5755 88.5228 69.5755 92.8942C69.5755 97.8176 65.2784 101.821 60.0264 101.821C54.7744 101.821 50.3965 97.8397 50.3965 92.9163V92.909Z" fill="#BB071F"/>
</svg>
