<svg width="266" height="326" viewBox="0 0 266 326" fill="none" xmlns="http://www.w3.org/2000/svg">
<g opacity="0.6">
<path d="M289.216 252.118C294.623 275.131 266.687 256.627 249.588 243.242C249.334 243.042 249.261 242.976 248.985 242.806C240.266 237.423 -17.5264 78.0132 54.2491 92.0636C64.6987 94.1092 77.6361 98.9509 89.8092 104.251C93.1109 105.688 142.801 129.405 146.137 130.761C156.889 135.132 168.694 140.678 180.778 147.16C175.715 143.342 170.357 139.617 164.486 135.993C149.554 126.776 134.171 115.282 126.257 110.812C111.537 102.497 104.877 97.8924 103.009 96.5453C102.622 96.2659 102.173 95.9835 101.752 95.7573C36.6351 60.7478 174.139 79.4864 229.354 114.162C263.482 135.596 261.127 162.561 269.194 177.664C269.435 178.115 269.639 178.551 269.805 179.033C272.376 186.468 294.412 250.485 288.103 241.738C284.413 236.624 288.041 237.75 279.907 230.029C284.276 237.333 287.479 244.727 289.216 252.118Z" fill="#FFDBDF"/>
<path d="M154.889 189.698C161.418 193.127 171.488 199.412 167.767 202.947C159.612 210.693 130.736 192.264 112.36 176.805C111.56 176.132 92.5923 161.346 91.7842 160.682C87.739 157.36 83.5777 153.702 80.3342 150.299C57.1936 126.016 147.998 185.241 154.189 189.289C154.423 189.442 154.641 189.568 154.889 189.698Z" fill="#FFDBDF"/>
</g>
</svg>
