<svg width="30" height="40" viewBox="0 0 30 40" fill="none" xmlns="http://www.w3.org/2000/svg">
<path d="M5.25741 8.13504C4.30522 7.56189 1.79963 6.63254 0.582182 6.24856C1.46689 6.10729 3.50119 5.66833 5.5858 4.77218" stroke="#BB071F" stroke-width="0.426213" stroke-linecap="round"/>
<path d="M24.1195 8.26984C25.0717 7.69669 27.5773 6.76734 28.7948 6.38336C27.9101 6.24209 25.8758 5.80313 23.7912 4.90698" stroke="#BB071F" stroke-width="0.426213" stroke-linecap="round"/>
<circle cx="14.6077" cy="5.80477" r="5.47634" fill="#E9E9E9"/>
<ellipse cx="14.6081" cy="7.79295" rx="3.74193" ry="4.10603" fill="white"/>
<path d="M23.9794 18.0238C22.8713 17.834 22.1017 18.1646 21.6445 18.4938L21.6142 18.5156L21.5984 18.4817C21.1416 17.501 20.2226 16.9879 18.9806 17.0919C18.0459 17.1714 17.3554 17.6293 16.8472 18.2354L16.7926 18.3005V18.2156V11.8014V7.18372V7.15286H16.7986C16.7821 5.93708 15.7899 4.95512 14.5702 4.95512H14.4097C13.6277 4.95512 13.0779 5.31387 12.7223 5.86802C12.3657 6.42369 12.2037 7.17708 12.2037 7.96373V7.96472L12.2037 7.96472L12.0811 11.8024L12.0811 11.8024L11.8156 20.3217L11.8154 20.328L11.8148 20.3279C11.8118 20.3407 11.8084 20.3778 11.8054 20.4403C11.8025 20.5014 11.8 20.5837 11.7979 20.6842C11.7937 20.8852 11.791 21.1583 11.7896 21.479C11.7867 22.1202 11.7886 22.9509 11.7925 23.7736C11.7964 24.5963 11.8021 25.4109 11.807 26.0199C11.8094 26.3243 11.8115 26.5774 11.8131 26.7543L11.815 26.9595L11.8155 27.0135L11.8156 27.0274L11.8156 27.0309L11.8156 27.0318L11.8156 27.032L11.7848 27.0323L11.8156 27.0321L11.8164 27.1089L11.7627 27.0539C11.6401 26.9283 11.4428 26.7809 11.2061 26.6209C10.9962 26.479 10.7568 26.3283 10.5136 26.1752C10.4831 26.156 10.4526 26.1368 10.422 26.1175C10.148 25.9448 9.8733 25.7702 9.63578 25.6035C9.39872 25.4371 9.1967 25.2773 9.06915 25.134C8.48886 24.4862 7.69182 23.9152 6.86076 23.4861C6.0296 23.0569 5.16656 22.7709 4.45517 22.6911L4.45509 22.6911C4.26568 22.6694 4.10583 22.6407 3.96703 22.6144C3.94682 22.6106 3.92708 22.6068 3.90779 22.6031C3.79413 22.5814 3.69587 22.5626 3.606 22.5522C3.5013 22.5401 3.41005 22.5396 3.32234 22.5587C3.23554 22.5775 3.15057 22.6159 3.05868 22.6838C2.87202 22.8759 2.7632 22.9849 2.70326 23.0417C2.67385 23.0696 2.65452 23.0865 2.64321 23.0942C2.64053 23.096 2.63613 23.0988 2.63099 23.1006C2.62863 23.1014 2.62302 23.1032 2.61595 23.1024C2.61109 23.1018 2.60584 23.1 2.60116 23.0968C2.28199 23.4448 2.007 23.8744 1.85833 24.3155C1.69419 24.8026 1.68502 25.3002 1.93506 25.719L1.93514 25.7191C2.1514 26.0856 2.52328 26.3278 2.92877 26.592L2.93785 26.5979L2.93791 26.598C3.06002 26.678 3.20248 26.7598 3.35779 26.8489C3.87816 27.1477 4.54274 27.5292 5.06894 28.2037C6.21034 29.6597 8.84956 32.9217 10.4724 34.6623C10.6256 34.7596 10.8554 34.9587 11.0903 35.1624C11.1152 35.1839 11.1401 35.2055 11.1649 35.227C11.2965 35.3408 11.4279 35.4533 11.5474 35.5485C11.6673 35.6439 11.7738 35.7207 11.856 35.764L11.8582 35.7652L11.8582 35.7653C12.371 36.0928 12.8377 36.4111 13.2127 36.6894C13.587 36.9672 13.8717 37.2066 14.0193 37.376C14.073 37.437 14.1958 37.5263 14.3541 37.6273C14.5111 37.7276 14.6994 37.8372 14.8809 37.939C15.0623 38.0407 15.2367 38.1343 15.3657 38.2025C15.4302 38.2366 15.4833 38.2644 15.5204 38.2836L15.5632 38.3057L15.5744 38.3115L15.5772 38.313L15.578 38.3133L15.5781 38.3134L15.5782 38.3134L15.5641 38.3409L15.5782 38.3134L15.5807 38.3147L15.5806 38.3148C16.6616 38.9965 18.6312 39.6373 20.9041 39.6373C21.0975 39.6373 21.2893 39.6383 21.4792 39.6393C22.4094 39.644 23.296 39.6485 24.1179 39.5373C25.1065 39.4035 25.9983 39.1026 26.7546 38.4351L26.7634 38.4273H26.775H26.8396L26.8694 38.343L26.872 38.3357L26.8777 38.3305C28.4276 36.9098 29.3864 34.9485 29.3864 32.7725V32.7693V32.7661V32.7629V32.7597V32.7564V32.753V32.7497V32.7463V32.7428V32.7394V32.7359V32.7324V32.7288V32.7252V32.7216V32.718V32.7143V32.7106V32.7069V32.7031V32.6993V32.6954V32.6916V32.6877V32.6838V32.6798V32.6758V32.6718V32.6678V32.6637V32.6596V32.6555V32.6513V32.6471V32.6429V32.6387V32.6344V32.6301V32.6258V32.6214V32.617V32.6126V32.6082V32.6037V32.5992V32.5947V32.5902V32.5856V32.581V32.5763V32.5717V32.567V32.5623V32.5576V32.5528V32.548V32.5432V32.5384V32.5335V32.5286V32.5237V32.5188V32.5138V32.5088V32.5038V32.4988V32.4937V32.4886V32.4835V32.4784V32.4732V32.4681V32.4629V32.4576V32.4524V32.4471V32.4418V32.4365V32.4312V32.4258V32.4204V32.415V32.4096V32.4041V32.3986V32.3931V32.3876V32.3821V32.3765V32.371V32.3654V32.3597V32.3541V32.3484V32.3427V32.337V32.3313V32.3256V32.3198V32.314V32.3082V32.3024V32.2966V32.2907V32.2848V32.2789V32.273V32.2671V32.2611V32.2551V32.2491V32.2431V32.2371V32.2311V32.225V32.2189V32.2128V32.2067V32.2006V32.1944V32.1883V32.1821V32.1759V32.1697V32.1634V32.1572V32.1509V32.1447V32.1384V32.132V32.1257V32.1194V32.113V32.1067V32.1003V32.0939V32.0874V32.081V32.0746V32.0681V32.0616V32.0552V32.0487V32.0421V32.0356V32.0291V32.0225V32.0159V32.0094V32.0028V31.9962V31.9895V31.9829V31.9763V31.9696V31.963V31.9563V31.9496V31.9429V31.9362V31.9294V31.9227V31.916V31.9092V31.9024V31.8956V31.8889V31.8821V31.8752V31.8684V31.8616V31.8548V31.8479V31.841V31.8342V31.8273V31.8204V31.8135V31.8066V31.7997V31.7928V31.7858V31.7789V31.772V31.765V31.758V31.7511V31.7441V31.7371V31.7301V31.7231V31.7161V31.7091V31.7021V31.695V31.688V31.681V31.6739V31.6669V31.6598V31.6527V31.6457V31.6386V31.6315V31.6244V31.6173V31.6102V31.6031V31.596V31.5889V31.5818V31.5747V31.5675V31.5604V31.5533V31.5462V31.539V31.5319V31.5247V31.5176V31.5104V31.5033V31.4961V31.489V31.4818V31.4746V31.4675V31.4603V31.4531V31.4459V31.4388V31.4316V31.4244V31.4172V31.4101V31.4029V31.3957V31.3885V31.3813V31.3741V31.367V31.3598V31.3526V31.3454V31.3382V31.331V31.3239V31.3167V31.3095V31.3023V31.2951V31.2879V31.2808V31.2736V31.2664V31.2593V31.2521V31.2449V31.2377V31.2306V31.2234V31.2163V31.2091V31.202V31.1948V31.1877V31.1805V31.1734V31.1662V31.1591V31.152V31.1448V31.1377V31.1306V31.1235V31.1164V31.1093V31.1022V31.0951V31.088V31.0809V31.0738V31.0668V31.0597V31.0526V31.0456V31.0385V31.0315V31.0245V31.0174V31.0104V31.0034V30.9964V30.9894V30.9824V30.9754V30.9684V30.9614V30.9545V30.9475V30.9406V30.9336V30.9267V30.9198V30.9129V30.9059V30.899V30.8922V30.8853V30.8784V30.8715V30.8647V30.8578V30.851V30.8442V30.8374V30.8306V30.8238V30.817V30.8102V30.8035V30.7967V30.79V30.7832V30.7765V30.7698V30.7631V30.7564V30.7498V30.7431V30.7365V30.7298V30.7232V30.7166V30.71V30.7034V30.6968V30.6903V30.6837V30.6772V30.6707V30.6642V30.6577V30.6512V30.6448V30.6383V30.6319V30.6254V30.619V30.6127V30.6063V30.5999V30.5936V30.5872V30.5809V30.5746V30.5683V30.5621V30.5558V30.5496V30.5434V30.5372V30.531V30.5248V30.5186V30.5125V30.5064V30.5003V30.4942V30.4881V30.4821V30.4761V30.47V30.464V30.4581V30.4521V30.4462V30.4402V30.4343V30.4285V30.4226V30.4167V30.4109V30.4051V30.3993V30.3935V30.3878V30.3821V30.3764V30.3707V30.365V30.3593V30.3537V30.3481V30.3425V30.337V30.3314V30.3259V30.3204V30.3149V30.3095V30.304V30.2986V30.2932V30.2878V30.2825V30.2772V30.2719V30.2666V30.2613V30.2561V30.2509V30.2457V30.2405V30.2354V30.2303V30.2252V30.2201V30.2151V30.2101V30.2051V30.2001V30.1952V30.1902V30.1853V30.1805V30.1756V30.1708V30.166V30.1613V30.1565V30.1518V30.1471V30.1424V30.1378V30.1332V30.1286V30.1241V30.1195V30.115V30.1105V30.1061V30.1017V30.0973V30.0929V30.0886V30.0843V30.08V30.0757V30.0715V30.0673V30.0632V30.059V30.0549V30.0508V30.0468V30.0428V30.0388V30.0348V30.0309V30.027V30.0231V30.0193V30.0155V30.0117V30.0079V30.0042V30.0005V29.9969V29.9932V29.9896V29.9861V29.9825V29.979V29.9756V29.9721V29.9687V29.9654V29.962V29.9587V29.9555V29.9522V29.949V29.9458V29.9427V29.9396V29.9365V29.9335V29.9305V29.9275V29.9246V29.9217V29.9188V29.916V29.9132V29.9104V29.9077V29.905V29.9023V29.8997V29.8971V29.8945V29.892V29.8895V29.8871V29.8847V29.8823V29.88V29.8777V29.8754V29.8732V29.871V22.3518C29.3864 22.0973 29.3587 21.5459 29.1522 20.9944C28.9459 20.4435 28.5622 19.8951 27.8512 19.6399C27.1686 19.3961 26.5224 19.4872 25.9724 19.7255L25.9617 19.7302L25.9616 19.7281L25.832 19.7342L25.8305 19.7343V19.7343H25.7873H25.7635L25.7575 19.7113C25.5133 18.7836 24.8926 18.1821 23.9794 18.0238ZM23.9794 18.0238C23.9794 18.0238 23.9794 18.0238 23.9794 18.0238L23.9847 17.9934L23.9795 18.0238C23.9794 18.0238 23.9794 18.0238 23.9794 18.0238Z" fill="#E9E9E9" stroke="#E9E9E9" stroke-width="0.0617341"/>
</svg>
