<svg width="274" height="387" viewBox="0 0 274 387" fill="none" xmlns="http://www.w3.org/2000/svg">
<g opacity="0.6">
<path d="M273.161 350.345C267.166 381.02 243.558 343.531 230.227 318.103C230.028 317.723 229.976 317.604 229.737 317.249C222.155 306.022 -1.87566 -26.2542 76.9907 29.7013C88.4726 37.8477 101.433 50.7166 113.223 63.7219C116.421 67.2492 163.414 122.849 166.697 126.296C177.279 137.41 188.491 150.512 199.532 164.893C195.506 157.54 191.074 150.137 185.968 142.577C172.983 123.351 160.691 101.135 153.583 91.4457C140.363 73.4214 134.839 64.2506 133.321 61.6118C133.006 61.0646 132.618 60.48 132.234 59.9787C72.7873 -17.6172 228.322 79.7229 276.016 151.533C305.495 195.919 287.997 227.139 289.508 249.726C289.553 250.4 289.562 251.037 289.501 251.708C288.556 262.067 280.312 351.201 277.463 337.23C275.796 329.06 279.556 332.389 273.95 318.662C275.245 329.84 275.086 340.493 273.161 350.345Z" fill="#F9ECEE"/>
<path d="M145.207 202.086C151.213 209.769 159.933 222.818 153.526 225.055C139.486 229.958 114.703 192.048 100.96 163.426C100.362 162.18 85.5408 134.047 84.9276 132.808C81.8582 126.605 78.8318 119.934 76.773 114.069C62.0851 72.2221 139.326 192.968 144.586 201.213C144.785 201.525 144.98 201.795 145.207 202.086Z" fill="#F9ECEE"/>
</g>
</svg>
