<svg width="126" height="127" viewBox="0 0 126 127" fill="none" xmlns="http://www.w3.org/2000/svg">
<path fill-rule="evenodd" clip-rule="evenodd" d="M102.351 89.3306C102.351 89.3306 98.9737 106.311 65.4051 108.122C30.639 110.001 23.2773 89.7831 23.2773 89.7831L28.9076 71.4387C28.9076 71.4387 38.3711 82.3101 62.6273 81.9941C89.4679 81.6492 96.9434 70.7607 96.9434 70.7607L102.351 89.3306Z" fill="#CD4F60"/>
<path fill-rule="evenodd" clip-rule="evenodd" d="M101.057 90.8166C100.322 92.9393 98.2608 97.043 92.7509 100.675C85.8276 105.233 75.8189 107.578 63.0052 107.646C50.1812 107.578 40.1709 105.233 33.251 100.675C27.7411 97.043 25.6802 92.9393 24.9429 90.8166C24.7102 90.1522 24.6931 89.4436 24.8954 88.769L29.649 72.6497L29.6541 72.6532C29.7492 72.8239 29.858 72.9912 29.9718 73.1552L30.0263 73.2406C30.1384 73.4011 30.2557 73.5565 30.3797 73.7137L30.4544 73.8077C30.5853 73.9646 30.7178 74.1218 30.8622 74.2772L30.9149 74.3352C31.0523 74.4856 31.1985 74.6291 31.3532 74.7741L31.416 74.8355C31.5741 74.9893 31.7405 75.1328 31.9122 75.2814L32.0191 75.377C32.1907 75.5204 32.3674 75.6655 32.5526 75.8022L32.6613 75.8858C32.8516 76.0345 33.0503 76.1762 33.251 76.3144L33.29 76.3452C33.4904 76.4802 33.6994 76.6168 33.9135 76.75L34.0393 76.832C34.255 76.9652 34.4741 77.0967 34.6934 77.2265L34.853 77.3119C35.079 77.4416 35.3135 77.5696 35.5479 77.6944L35.672 77.7592C35.8996 77.877 36.1341 77.9984 36.377 78.1111L36.4841 78.1657C36.7389 78.2853 36.9989 78.4065 37.264 78.5244L37.4492 78.6062C37.709 78.7173 37.9758 78.83 38.2476 78.9444L38.4328 79.0161C38.7165 79.1322 39.0037 79.245 39.2942 79.3543L39.3808 79.3849C39.6611 79.4892 39.9483 79.5916 40.2355 79.6907L40.4155 79.7521C40.7128 79.8546 41.0153 79.952 41.3227 80.0494L41.5402 80.1193C41.8546 80.2167 42.1689 80.314 42.4848 80.4044L42.6667 80.4541C42.9759 80.5445 43.2918 80.6333 43.6095 80.717L43.7268 80.7478C44.0633 80.8366 44.4081 80.9236 44.7564 81.0073L44.9772 81.0586C45.3187 81.1422 45.6653 81.2225 46.0137 81.2994L46.2395 81.3472C46.5998 81.424 46.9617 81.5026 47.3321 81.5744L47.4527 81.5982C47.8061 81.6666 48.1611 81.7331 48.523 81.7997L48.7082 81.8305C49.0837 81.9004 49.4626 81.9586 49.8415 82.0234L50.0877 82.0594C50.4718 82.1174 50.8575 82.1772 51.2465 82.2319L51.4469 82.2575C51.8395 82.3121 52.237 82.365 52.638 82.4145L52.7043 82.423C53.1187 82.4675 53.535 82.517 53.9563 82.5597L54.1824 82.5836C54.5884 82.6229 54.9996 82.6622 55.4124 82.698L55.6554 82.7169C56.0783 82.7526 56.5066 82.7834 56.933 82.8158L57.0707 82.821C57.4886 82.85 57.9099 82.8772 58.3346 82.8961L58.496 82.9046C58.931 82.9285 59.3693 82.9474 59.8111 82.9593L60.0642 82.9678C60.5025 82.9815 60.9375 82.9951 61.381 83.0036L61.6034 83.0054C62.0655 83.0157 62.5328 83.0191 63.0018 83.0191C69.4494 83.0191 75.4229 82.3497 80.5216 81.1782L80.5182 81.1748L80.1716 79.2911C75.3431 80.4044 69.5395 81.0893 63.0018 81.0893C51.3943 81.0893 42.0772 78.9444 36.4875 76.0225C36.1579 75.126 35.9727 74.1611 35.9727 73.1552C35.9727 69.4067 38.499 66.1314 42.1077 65.187L42.8519 64.994L42.8281 64.2221L42.8196 64.0649L42.8111 63.9507C42.8111 59.4063 46.4877 55.7109 51.007 55.7109C52.3236 55.7109 53.586 56.0232 54.7617 56.633L55.601 57.0702L56.0496 56.2334C57.4817 53.5556 60.246 51.8889 63.2718 51.8889C66.2027 51.8889 68.9278 53.4839 70.3873 56.0524L70.8222 56.8122L71.6173 56.4502C72.6911 55.9618 73.8294 55.7109 74.9931 55.7109C79.5124 55.7109 83.1873 59.4063 83.1873 63.9507L83.1823 64.0615L83.1738 64.2239L83.1516 64.994L83.8924 65.187C87.5027 66.1314 90.0292 69.4067 90.0292 73.1552C90.0292 74.1611 89.8422 75.126 89.511 76.0192C87.6693 76.9805 85.4283 77.8583 82.8323 78.6062L83.1823 80.5002V80.5018C83.5884 80.3858 83.9792 80.2679 84.3733 80.1432L84.4056 80.1348C85.1803 79.8922 85.9244 79.6395 86.6413 79.3714L86.6924 79.3543C86.8622 79.2911 87.0321 79.2279 87.1969 79.163L87.2565 79.1391C87.7559 78.9462 88.2384 78.7447 88.7074 78.5381L88.794 78.4953L89.2034 78.3092L89.3444 78.2426L89.7386 78.053L89.8049 78.0222C90.0529 77.8993 90.2942 77.7713 90.5337 77.6499L90.6917 77.5662L90.9993 77.3972L91.2032 77.2793L91.4852 77.1188L91.7077 76.9823L92.0747 76.7567L92.3686 76.569L92.5827 76.4273L92.824 76.2616L93.0193 76.1233L93.2776 75.932L93.4357 75.8159L93.8146 75.5171L93.9334 75.4145L94.2018 75.1892L94.3327 75.0714L94.579 74.8425L94.6877 74.74L95.0173 74.4087L95.0462 74.3746L95.3283 74.0654L95.4115 73.9698L95.6273 73.7051L95.702 73.6129L95.9552 73.2696L95.9619 73.2644L96.1982 72.9008L96.2473 72.8172L96.3493 72.6497L101.11 88.769C101.307 89.4436 101.29 90.1522 101.057 90.8166ZM30.7263 69.3078L30.733 69.2428L30.7636 69.0055L30.7705 68.9747C31.2564 66.1314 35.0535 63.2471 41.2803 61.1687C41.0628 61.9287 40.9319 62.7227 40.9014 63.539C36.834 64.936 34.0528 68.7818 34.0528 73.1552C34.0528 73.6487 34.097 74.1355 34.1633 74.6102C31.929 73.0238 30.716 71.2888 30.716 69.5911L30.7263 69.3078ZM95.2332 68.9714L95.2381 68.9986L95.2671 69.2428L95.274 69.306L95.2859 69.5911C95.2859 71.287 94.0727 73.022 91.8419 74.6102C91.9099 74.1355 91.9455 73.6487 91.9455 73.1552C91.9455 68.7818 89.1661 64.936 85.0987 63.539C85.0664 62.7227 84.9373 61.9287 84.7198 61.1653C90.9482 63.2471 94.7438 66.128 95.2332 68.9714ZM102.948 88.219L96.9967 68.0663L96.9915 68.0679C95.9399 64.2682 91.0112 60.9944 83.7379 58.8461C81.981 55.8217 78.7207 53.7863 74.9931 53.7863C73.831 53.7863 72.6996 53.9826 71.6036 54.377C69.7281 51.6362 66.6052 49.9609 63.2718 49.9609C59.8451 49.9609 56.6866 51.696 54.8229 54.536C53.6115 54.0406 52.3288 53.7863 51.007 53.7863C47.281 53.7863 44.0173 55.8217 42.264 58.8461C34.9873 60.9944 30.0586 64.2682 29.0102 68.0679L29.0052 68.0663L23.0519 88.219C22.736 89.2846 22.7649 90.4015 23.1301 91.4534C23.9507 93.8068 26.2138 98.3459 32.1992 102.286C39.4335 107.054 49.7938 109.508 63.0052 109.576C76.2045 109.508 86.5666 107.054 93.8009 102.286C99.7847 98.3459 102.053 93.8068 102.87 91.4534C103.234 90.4015 103.263 89.2846 102.948 88.219Z" fill="#BB071F"/>
<path fill-rule="evenodd" clip-rule="evenodd" d="M68.5157 41.109C68.2727 41.3907 67.9312 41.5394 67.5863 41.5394C67.3043 41.5394 67.0188 41.4402 66.7895 41.2421C66.2731 40.7998 66.2135 40.0211 66.6554 39.5055C69.3652 36.3255 67.306 31.5508 67.2839 31.5081C67.0087 30.8848 67.289 30.1573 67.9007 29.8807C68.5191 29.6006 69.241 29.8807 69.5197 30.4955C69.6318 30.7499 72.2433 36.7339 68.5157 41.109ZM63.2608 18.14C61.7758 17.93 53.4287 30.5142 53.4287 35.7519C53.4287 40.9878 58.0007 45.2314 63.6379 45.2314C69.2733 45.2314 73.8471 40.9878 73.8471 35.7519C73.8471 30.5142 64.5179 18.3211 63.2608 18.14Z" fill="#CD4F60"/>
<path fill-rule="evenodd" clip-rule="evenodd" d="M68.4038 30.309L68.1217 30.3687C67.7735 30.5259 67.6172 30.9374 67.7735 31.2858C67.7973 31.337 70.006 36.4005 67.0634 39.8534C66.941 39.9953 66.8816 40.1745 66.8951 40.3623C66.9105 40.5451 66.9971 40.7142 67.1363 40.8372C67.415 41.0728 67.8737 41.0403 68.1098 40.7603C71.6251 36.6361 69.1428 30.9562 69.0325 30.7154C68.9186 30.461 68.6654 30.309 68.4038 30.309ZM67.5883 42.0753C67.167 42.0753 66.7625 41.9233 66.4448 41.6516C66.0881 41.3443 65.8706 40.9157 65.8298 40.4461C65.7959 39.9746 65.9437 39.5153 66.2495 39.1568C68.7266 36.2518 66.8186 31.7674 66.7984 31.723C66.4058 30.8367 66.8033 29.7898 67.6852 29.3919C68.5601 28.9923 69.6016 29.3885 70.0042 30.2731C70.1249 30.5429 72.8704 36.8205 68.9204 41.4571C68.5838 41.8481 68.0997 42.0753 67.5883 42.0753ZM63.2015 18.6913C61.8016 19.3027 53.9625 30.683 53.9625 35.7533C53.9625 40.6852 58.3051 44.6965 63.6381 44.6965C68.9713 44.6965 73.3139 40.6852 73.3139 35.7533C73.3139 30.7974 64.6728 19.5076 63.2015 18.6913ZM63.6381 45.7707C57.7155 45.7707 52.8955 41.2761 52.8955 35.7533C52.8955 30.8537 59.6132 20.3546 62.1278 18.1619C62.6188 17.7316 62.9874 17.5642 63.3374 17.6086C65.1112 17.8665 74.3809 30.5617 74.3809 35.7533C74.3809 41.2761 69.5625 45.7707 63.6381 45.7707Z" fill="#BB071F"/>
</svg>
