<svg width="126" height="127" viewBox="0 0 126 127" fill="none" xmlns="http://www.w3.org/2000/svg">
<path fill-rule="evenodd" clip-rule="evenodd" d="M101.481 72.8103C101.481 72.8103 98.1775 89.3353 65.3419 91.0985C31.3329 92.9268 24.1299 73.2507 24.1299 73.2507L29.6394 55.3994C29.6394 55.3994 38.8965 65.9779 62.6244 65.6704C88.8803 65.3363 96.1913 54.738 96.1913 54.738L101.481 72.8103Z" fill="#CD4F60"/>
<path fill-rule="evenodd" clip-rule="evenodd" d="M31.4184 52.1865L31.4252 52.1301L31.4551 51.8891L31.4601 51.8625C31.937 49.0985 35.6498 46.2915 41.7443 44.2638C41.5333 45.0034 41.4037 45.7763 41.3704 46.5773C37.3932 47.9302 34.6742 51.6746 34.6742 55.9294C34.6742 56.413 34.7141 56.8883 34.779 57.3486C32.5934 55.803 31.4068 54.1144 31.4068 52.4641L31.4184 52.1865ZM63.2486 89.4912L62.9926 89.4962C50.4498 89.4346 40.6573 87.1527 33.8848 82.7136C28.495 79.1787 26.4808 75.1849 25.7595 73.119C25.5334 72.4693 25.5152 71.7828 25.7112 71.1264L30.3632 55.4407L30.3681 55.4457C30.4628 55.6069 30.5676 55.7681 30.6789 55.9326L30.7354 56.0173C30.8418 56.1686 30.9581 56.3215 31.0794 56.4744L31.1526 56.5641C31.2789 56.7205 31.4101 56.8716 31.5498 57.0245L31.6013 57.0811L32.0284 57.5081L32.0933 57.5663C32.2444 57.7158 32.409 57.8606 32.5752 58.0051L32.6816 58.0966C32.8494 58.2345 33.0239 58.3725 33.2034 58.512L33.3115 58.5901C33.4977 58.7313 33.6905 58.8693 33.8848 59.0072L33.9247 59.0355C34.1226 59.1669 34.327 59.3014 34.5347 59.4327L34.661 59.5093C34.8687 59.6389 35.0832 59.7668 35.2993 59.8931L35.4554 59.9778C35.6765 60.1059 35.9024 60.2305 36.1369 60.3502L36.2549 60.4134C36.4793 60.5279 36.7085 60.6443 36.9445 60.754L37.0526 60.8073C37.2969 60.9268 37.5529 61.0448 37.8137 61.1562L37.9933 61.2343C38.2475 61.3473 38.5085 61.457 38.7761 61.5666L38.9573 61.6381C39.233 61.7478 39.5139 61.8559 39.7997 61.9656L39.8862 61.9939C40.1605 62.0952 40.4397 62.1917 40.7205 62.293L40.8951 62.3494C41.1876 62.4509 41.4851 62.5439 41.7825 62.642L41.9952 62.7085C42.3027 62.8065 42.6102 62.8962 42.9226 62.9877L43.0954 63.0359C43.3996 63.1223 43.7104 63.2087 44.0229 63.2919L44.1326 63.3201C44.4666 63.4099 44.804 63.493 45.1431 63.5761L45.3608 63.6242C45.6949 63.704 46.0322 63.7838 46.3713 63.8553L46.5939 63.9051C46.9462 63.9782 47.3002 64.058 47.661 64.1262L47.7823 64.151C48.1262 64.2159 48.4753 64.2773 48.8276 64.3422L49.0121 64.3771C49.3761 64.4418 49.7433 64.5034 50.119 64.5598L50.3583 64.5997C50.7305 64.653 51.1095 64.7112 51.4885 64.7677L51.6879 64.791C52.0735 64.8441 52.4591 64.8939 52.8512 64.9388L52.9177 64.9489C53.3232 64.997 53.7305 65.0386 54.1409 65.0834L54.3637 65.1066C54.7609 65.1465 55.163 65.1832 55.5652 65.218L55.8045 65.2397C56.2184 65.2713 56.6389 65.3045 57.0545 65.3327L57.189 65.3411C57.5978 65.3694 58.0084 65.3909 58.4255 65.4141L58.5834 65.4225C59.0089 65.4424 59.436 65.4624 59.8681 65.474L60.1157 65.4823C60.5429 65.5005 60.97 65.5089 61.4071 65.5155L61.6249 65.5172C62.0736 65.5255 62.5305 65.5288 62.9893 65.5288L63.2486 65.5222V63.6509L62.9893 63.6542C51.6348 63.6542 42.5238 61.5618 37.0559 58.7247C36.7302 57.8522 36.5506 56.9133 36.5506 55.9294C36.5506 52.283 39.0187 49.0985 42.5504 48.1795L43.2801 47.9933L43.2551 47.2388L43.2467 47.0842L43.2384 46.9745C43.2384 42.5504 46.835 38.9573 51.2591 38.9573C52.5437 38.9573 53.7786 39.258 54.9305 39.8513L55.753 40.2786L56.1868 39.4642C57.5879 36.8566 60.2936 35.2394 63.2486 35.2361V33.358C59.8997 33.3598 56.8101 35.0466 54.9902 37.8155C53.8036 37.3286 52.5505 37.0809 51.2591 37.0809C47.611 37.0809 44.4184 39.0637 42.7032 42.0069C35.5884 44.0978 30.762 47.282 29.7382 50.9817L29.7333 50.9799L23.9114 70.5945C23.6039 71.6299 23.6289 72.7185 23.9877 73.7406C24.7889 76.0326 27.0059 80.4451 32.8577 84.2825C39.9361 88.9227 50.0708 91.3094 62.9926 91.3759L63.2486 91.3675V89.4912Z" fill="#BB071F"/>
<path fill-rule="evenodd" clip-rule="evenodd" d="M80.1498 63.7699L79.8108 61.9385C75.1805 62.9987 69.6228 63.6569 63.3789 63.6818V65.5515C69.543 65.53 75.2653 64.8918 80.1531 63.7765L80.1498 63.7699Z" fill="#BB071F"/>
<path fill-rule="evenodd" clip-rule="evenodd" d="M102.092 70.6241L96.2715 51.0111L96.2666 51.0161C95.2727 47.4512 90.8867 43.8945 84.0578 42.2758C75.3574 40.2066 67.885 40.1003 67.6424 40.0305C67.6424 40.0305 67.767 42.7445 67.5543 42.0016C67.7339 42.0613 75.4471 42.3605 84.7906 44.4812C90.7555 45.8307 94.0828 49.2095 94.5447 51.8919L94.5497 51.9169L94.578 52.1628L94.5846 52.2227L94.5947 52.4986C94.5947 54.1506 93.4046 55.8325 91.2258 57.3814C90.1539 58.1427 84.9536 60.5441 82.4157 61.267L82.7548 63.1118C83.152 63.0006 83.5376 62.8842 83.9198 62.7679L83.9514 62.7578C84.711 62.5253 85.4387 62.2759 86.1369 62.0167L86.19 62C86.3562 61.9369 86.5224 61.8754 86.6836 61.8123L86.7435 61.789C87.2304 61.5995 87.7007 61.4034 88.1595 61.2006L88.2459 61.1641L88.6464 60.983L88.786 60.9148L89.1682 60.7354L89.2364 60.7005C89.479 60.5825 89.715 60.461 89.9477 60.3414L90.1039 60.255L90.4048 60.0905L90.6026 59.9841L90.8784 59.8229L91.0979 59.6933L91.4567 59.4689L91.7427 59.2878L91.9487 59.1531L92.1882 58.9886L92.381 58.8539L92.6334 58.671L92.7848 58.5548L93.1587 58.2607L93.2734 58.1659L93.5342 57.9433L93.6639 57.8286L93.9066 57.6058L94.0095 57.5077L94.3354 57.1853L94.362 57.1537L94.6362 56.853L94.7175 56.7565L94.9287 56.5005L95.0035 56.4093L95.2527 56.0768L95.2577 56.0685L95.4871 55.7145L95.5387 55.6331L95.6383 55.4752L100.294 71.1608C100.486 71.814 100.47 72.5053 100.244 73.1519C99.5207 75.2193 97.5048 79.2114 92.1167 82.7465C85.4139 87.1406 75.7379 89.4142 63.3828 89.5256V91.3987C76.1152 91.2906 86.1351 88.9106 93.1454 84.3154C98.9989 80.4778 101.218 76.0653 102.015 73.775C102.373 72.7497 102.399 71.6594 102.092 70.6241Z" fill="#BB071F"/>
<path fill-rule="evenodd" clip-rule="evenodd" d="M94.582 44.8749C94.582 51.2469 88.1817 56.4139 80.289 56.4139C72.3997 56.4139 66.001 51.2469 66.001 44.8749C66.001 38.4978 72.3997 33.3341 80.289 33.3341C88.1817 33.3341 94.582 38.4978 94.582 44.8749Z" fill="white"/>
<path fill-rule="evenodd" clip-rule="evenodd" d="M72.9352 44.258C71.2433 44.258 69.8705 45.6324 69.8705 47.3243C69.8705 49.0162 71.2433 50.389 72.9352 50.389C74.6272 50.389 75.9999 49.0162 75.9999 47.3243C75.9999 45.6324 74.6272 44.258 72.9352 44.258ZM72.9352 51.4328C70.67 51.4328 68.8252 49.588 68.8252 47.3243C68.8252 45.0575 70.67 43.2142 72.9352 43.2142C75.1988 43.2142 77.0453 45.0575 77.0453 47.3243C77.0453 49.588 75.1988 51.4328 72.9352 51.4328Z" fill="#BB071F"/>
<path fill-rule="evenodd" clip-rule="evenodd" d="M81.7849 39.7136C80.0947 39.7136 78.7201 41.0896 78.7201 42.7816C78.7201 44.4719 80.0947 45.8463 81.7849 45.8463C83.4768 45.8463 84.8513 44.4719 84.8513 42.7816C84.8513 41.0896 83.4768 39.7136 81.7849 39.7136ZM81.7849 46.89C79.5196 46.89 77.6748 45.0468 77.6748 42.7816C77.6748 40.5147 79.5196 38.6715 81.7849 38.6715C84.0501 38.6715 85.8966 40.5147 85.8966 42.7816C85.8966 45.0468 84.0501 46.89 81.7849 46.89Z" fill="#BB071F"/>
<path fill-rule="evenodd" clip-rule="evenodd" d="M82.0241 51.4317C80.3322 51.4317 78.9594 52.8095 78.9594 54.4997C78.9594 56.1899 80.3322 57.5644 82.0241 57.5644C83.716 57.5644 85.0904 56.1899 85.0904 54.4997C85.0904 52.8095 83.716 51.4317 82.0241 51.4317ZM82.0241 58.6097C79.7589 58.6097 77.9141 56.7649 77.9141 54.4997C77.9141 52.2327 79.7589 50.3896 82.0241 50.3896C84.2894 50.3896 86.1357 52.2327 86.1357 54.4997C86.1357 56.7649 84.2894 58.6097 82.0241 58.6097Z" fill="#BB071F"/>
<path fill-rule="evenodd" clip-rule="evenodd" d="M90.0358 44.7369C88.3455 44.7369 86.9711 46.1114 86.9711 47.8049C86.9711 49.495 88.3455 50.8696 90.0358 50.8696C91.7293 50.8696 93.1038 49.495 93.1038 47.8049C93.1038 46.1114 91.7293 44.7369 90.0358 44.7369ZM90.0358 51.9116C87.7706 51.9116 85.9258 50.0686 85.9258 47.8049C85.9258 45.5379 87.7706 43.6948 90.0358 43.6948C92.3011 43.6948 94.1474 45.5379 94.1474 47.8049C94.1474 50.0686 92.3011 51.9116 90.0358 51.9116Z" fill="#BB071F"/>
<path fill-rule="evenodd" clip-rule="evenodd" d="M64.5099 19.4617L64.5029 16.5898L65.6291 16.5881L65.6326 19.4584L64.5099 19.4617ZM64.522 25.2022L64.5151 22.3336L65.6378 22.3286L65.6447 25.1989L64.522 25.2022ZM64.5342 30.941L64.5272 28.0723L65.65 28.069L65.6569 30.9377L64.5342 30.941ZM64.5446 36.6813L64.5376 33.8129L65.6604 33.8078L65.6656 36.678L64.5446 36.6813ZM64.555 42.4218L64.548 39.5517L65.6725 39.5482L65.6794 42.4185L64.555 42.4218ZM64.5654 48.1622L64.5602 45.292L65.6864 45.287L65.6916 48.1589L64.5654 48.1622ZM64.5793 53.9045L64.5723 51.0308L65.6968 51.0275L65.702 53.8994L64.5793 53.9045ZM64.5897 59.6432L64.5827 56.7729L65.7072 56.7696L65.7142 59.6398L64.5897 59.6432ZM64.6001 65.3836L64.5966 62.5134L65.7194 62.5084L65.7228 65.3786L64.6001 65.3836ZM64.614 71.1224L64.607 68.2522L65.7298 68.2489L65.735 71.1191L64.614 71.1224ZM64.6227 76.8629L64.6175 73.9943L65.7419 73.9893L65.7489 76.8596L64.6227 76.8629ZM64.6331 82.6033L64.6296 79.7331L65.7523 79.7298L65.7593 82.5982L64.6331 82.6033ZM64.647 88.3421L64.64 85.4736L65.7662 85.4686L65.7697 88.3388L64.647 88.3421ZM64.6591 94.0841L64.6522 91.2157L65.7766 91.2107L65.7818 94.0793L64.6591 94.0841ZM64.6678 99.8247L64.6643 96.9545L65.7853 96.9512L65.7922 99.8214L64.6678 99.8247ZM64.6817 105.565L64.6747 102.695L65.7974 102.69L65.8027 105.56L64.6817 105.565ZM64.6903 110.588L64.6869 108.434L65.8113 108.43L65.8165 110.586L64.6903 110.588Z" fill="#BB071F"/>
<path fill-rule="evenodd" clip-rule="evenodd" d="M68.445 13.7129L65.5731 13.7212L64.4979 13.7229L61.6293 13.7295L61.6343 16.5964L61.6391 19.4666V19.47L61.6426 19.8688L61.6459 22.3402L61.6492 25.2055V25.2103L61.6542 26.648L61.6575 28.0807L61.6624 30.9458V30.9526L61.6659 33.8177L61.6725 36.6879V36.6914L61.6758 38.1306L61.6791 39.5616L61.6841 42.4267V42.4317L61.6874 43.871L61.6907 45.3019L61.694 48.1672V48.1705L61.6957 49.6115L61.699 51.0424L61.7056 53.9077V53.911L61.7073 55.3503L61.7106 56.7812L61.7174 59.6481L61.7223 62.52L61.7273 65.3869V65.3919V65.4018L61.7306 68.2621H61.7339L61.7372 71.129V71.134L61.7407 72.5715L61.744 74.0026L61.7488 76.8695V76.8728L61.7539 78.312L61.7556 79.7414L61.7622 82.6083V82.6133V84.0508L61.7655 85.4835L61.7705 88.3486V88.3521L61.7722 89.7914L61.4531 91.5114L61.7839 94.0874V94.0925H61.7804L61.7872 96.9578L61.7938 99.828V99.8313L61.7955 101.272L61.7971 102.701L61.8038 105.572V105.573L61.8071 107.013L61.8104 108.444L61.8137 110.591L61.8203 113.464L64.6922 113.456L65.7676 113.455L68.6345 113.448L68.6294 110.578L68.6244 108.424L68.6211 105.555L68.6162 102.683L68.6128 101.242L68.6095 99.8146L68.6029 96.9444H68.6062L68.5996 94.0758L68.5928 91.2056L68.5912 89.7613L68.5895 88.3337L68.5829 85.4651L68.5812 84.0226L68.5763 82.5949L68.5696 79.7248L68.568 78.2805L68.5647 76.8546L68.5597 73.9842L68.5564 72.5401L68.5546 71.1123L68.548 68.2439L68.5447 65.3735L68.5397 62.5051V62.5033V62.495L68.5347 59.6332L68.5281 56.763L68.5248 55.3203L68.5215 53.8944L68.5165 51.0242L68.5147 49.5815L68.5114 48.1539L68.5064 45.2837L68.5015 43.8411L68.4998 42.4151L68.4932 39.5433L68.4915 38.099L68.4882 36.6714L68.4831 33.8028H68.4849L68.4798 30.9309L68.4748 28.0623L68.47 26.6197L68.4682 25.1921L68.4616 22.3236L68.4583 19.455L68.4516 16.5848L68.445 13.7129ZM65.7542 108.432L65.7593 110.583L64.6839 110.586L64.679 108.434L65.7542 108.432ZM65.7443 102.69L65.7509 105.56L64.674 105.563L64.669 102.692L65.7443 102.69ZM65.7327 96.951L65.7393 99.8214L64.6657 99.8229L64.6573 96.9528L65.7327 96.951ZM66.0301 91.4217L65.7294 94.0791L64.654 94.0826L64.6475 91.2122L65.7226 91.2107L66.0301 91.4217ZM65.711 85.4719L65.7193 88.3403L64.6424 88.342L64.6358 85.4752L65.711 85.4719ZM65.7011 79.7313L65.7077 82.6L64.6308 82.605L64.6258 79.7346L65.7011 79.7313ZM65.6911 73.9926L65.6944 76.8612L64.6192 76.8645L64.6124 73.9943L65.6911 73.9926ZM65.6794 68.2487L65.6845 71.1191L64.6058 71.1257L64.6025 68.2522L65.6794 68.2487ZM65.6678 62.5084L65.6744 65.3786L64.5975 65.3836L64.5942 62.5134L65.6678 62.5084ZM65.6579 56.7696L65.6628 59.6398L64.5876 59.6431L64.5808 56.7729L65.6579 56.7696ZM65.6463 51.0291L65.6511 53.8994L64.576 53.9043L64.5709 51.0341L65.6463 51.0291ZM65.638 45.2903L65.6413 48.1606L64.5643 48.1639L64.561 45.2937L65.638 45.2903ZM65.6246 39.5499L65.6312 42.4185L64.5527 42.4234L64.5477 39.555L65.6246 39.5499ZM65.613 33.8078L65.6196 36.6797L64.5426 36.683L64.536 33.8127L65.613 33.8078ZM65.6031 28.069L65.6097 30.9375L64.5327 30.941L64.5295 28.0723L65.6031 28.069ZM65.5915 22.3285L65.598 25.1987L64.5211 25.2022L64.5161 22.3335L65.5915 22.3285ZM65.5798 16.5881L65.5864 19.4583L64.5111 19.4616L64.5045 16.5914L65.5798 16.5881Z" fill="white"/>
<path fill-rule="evenodd" clip-rule="evenodd" d="M64.6304 88.4335L64.6237 85.5633L65.7023 85.5599L65.7056 88.4302L64.6304 88.4335ZM64.6138 79.8228L65.6891 79.8178L65.6957 82.6897L64.6188 82.693L64.6138 79.8228ZM64.6004 74.0807L65.6775 74.0774L65.6857 76.9476L64.6087 76.9526L64.6004 74.0807ZM64.5923 68.3419L65.6692 68.3402L65.674 71.2088L64.5956 71.2121L64.5923 68.3419ZM68.576 88.4252L68.5709 85.5566L68.5676 84.1107L68.5659 82.6831L68.5593 79.8129L68.556 78.3702L68.5543 76.9443L68.5459 74.0741L68.5427 71.2038L68.5394 68.3353V68.3336V68.322L68.5361 65.465H68.5343V65.1742C67.602 65.2391 66.6514 65.2989 65.6624 65.3371V65.4683L64.5855 65.4733V65.3654C64.1119 65.3786 63.6483 65.397 63.1596 65.4018C62.6709 65.4086 62.1939 65.4051 61.7153 65.4018L61.6339 63.7965L61.7219 68.3503L61.7252 71.2187V71.2204V71.227L61.732 74.0891L61.7386 76.9575V76.9625L61.7403 78.4035L61.7452 79.8311L61.7485 82.6998V82.7013L61.7535 84.1423L61.7552 85.5715L61.7603 88.4401V88.4418L61.7635 89.8827L61.4561 91.5114C62.7856 91.5081 64.6054 91.4998 66.028 91.4201C66.9538 91.3719 67.7116 91.2804 68.5942 91.2057L68.5793 89.8528L68.576 88.4252Z" fill="#CD4F60"/>
<path fill-rule="evenodd" clip-rule="evenodd" d="M71.6188 54.4246C69.9254 54.4246 68.5526 55.7974 68.5526 57.4911C68.5526 59.1812 69.9254 60.554 71.6188 60.554C73.3107 60.554 74.6853 59.1812 74.6853 57.4911C74.6853 55.7974 73.3107 54.4246 71.6188 54.4246ZM71.6188 61.5994C69.3536 61.5994 67.5088 59.7563 67.5088 57.4911C67.5088 55.2223 69.3536 53.3809 71.6188 53.3809C73.8843 53.3809 75.7291 55.2223 75.7291 57.4911C75.7291 59.7563 73.8843 61.5994 71.6188 61.5994Z" fill="#BB071F"/>
<path fill-rule="evenodd" clip-rule="evenodd" d="M71.9792 34.6921C70.289 34.6921 68.9127 36.0682 68.9127 37.7584C68.9127 39.4487 70.289 40.8248 71.9792 40.8248C73.6711 40.8248 75.0454 39.4487 75.0454 37.7584C75.0454 36.0682 73.6711 34.6921 71.9792 34.6921ZM71.9792 41.8686C69.7122 41.8686 67.8691 40.0238 67.8691 37.7584C67.8691 35.4915 69.7122 33.6483 71.9792 33.6483C74.2444 33.6483 76.091 35.4915 76.091 37.7584C76.091 40.0238 74.2444 41.8686 71.9792 41.8686Z" fill="#BB071F"/>
</svg>
