<svg width="127" height="127" viewBox="0 0 127 127" fill="none" xmlns="http://www.w3.org/2000/svg">
<path fill-rule="evenodd" clip-rule="evenodd" d="M101.854 72.246C101.854 72.246 100.329 88.6294 67.493 90.3926C33.484 92.2209 24.502 72.6864 24.502 72.6864L30.3527 54.1701C30.3527 54.1701 40.8016 65.4544 64.5295 65.1469C91.535 65.1469 97.0884 53.9952 97.0884 53.9952L101.854 72.246Z" fill="#CD4F60"/>
<path fill-rule="evenodd" clip-rule="evenodd" d="M32.2222 51.8569L32.2289 51.8005L32.2588 51.5595L32.2638 51.5329C32.7407 48.769 36.4535 45.9619 42.548 43.9342C42.337 44.6738 42.2074 45.4467 42.1741 46.2477C38.197 47.6006 35.4779 51.345 35.4779 55.5998C35.4779 56.0834 35.5178 56.5587 35.5827 57.0191C33.3971 55.4734 32.2105 53.7848 32.2105 52.1346L32.2222 51.8569ZM64.0523 89.1616L63.7964 89.1666C51.2535 89.105 41.461 86.8231 34.6885 82.384C29.2987 78.8491 27.2846 74.8553 26.5632 72.7894C26.3371 72.1397 26.3189 71.4532 26.515 70.7968L31.1669 55.1111L31.1718 55.1161C31.2665 55.2773 31.3713 55.4386 31.4826 55.6031L31.5391 55.6877C31.6455 55.8391 31.7618 55.9919 31.8831 56.1448L31.9563 56.2345C32.0826 56.3909 32.2138 56.542 32.3535 56.6949L32.4051 56.7515L32.8321 57.1785L32.897 57.2367C33.0482 57.3862 33.2127 57.531 33.3789 57.6755L33.4853 57.767C33.6531 57.9049 33.8277 58.0429 34.0071 58.1824L34.1152 58.2605C34.3014 58.4017 34.4942 58.5397 34.6885 58.6777L34.7284 58.7059C34.9263 58.8373 35.1307 58.9718 35.3384 59.1031L35.4647 59.1797C35.6724 59.3093 35.8869 59.4372 36.103 59.5635L36.2591 59.6482C36.4802 59.7763 36.7062 59.9009 36.9406 60.0206L37.0586 60.0838C37.283 60.1983 37.5122 60.3147 37.7482 60.4244L37.8563 60.4777C38.1006 60.5972 38.3566 60.7152 38.6174 60.8266L38.797 60.9047C39.0512 61.0177 39.3122 61.1274 39.5798 61.237L39.761 61.3085C40.0367 61.4182 40.3177 61.5263 40.6035 61.636L40.6899 61.6643C40.9642 61.7656 41.2434 61.8621 41.5242 61.9634L41.6988 62.0198C41.9913 62.1213 42.2888 62.2144 42.5862 62.3124L42.799 62.3789C43.1064 62.4769 43.4139 62.5666 43.7263 62.6581L43.8991 62.7063C44.2033 62.7927 44.5141 62.8792 44.8266 62.9623L44.9363 62.9906C45.2704 63.0803 45.6077 63.1634 45.9468 63.2465L46.1646 63.2946C46.4986 63.3744 46.8359 63.4542 47.175 63.5257L47.3977 63.5755C47.7499 63.6486 48.1039 63.7284 48.4647 63.7966L48.586 63.8214C48.9299 63.8863 49.2791 63.9477 49.6313 64.0126L49.8158 64.0475C50.1798 64.1122 50.547 64.1738 50.9227 64.2302L51.162 64.2702C51.5342 64.3234 51.9132 64.3816 52.2922 64.4381L52.4916 64.4614C52.8772 64.5145 53.2628 64.5643 53.655 64.6092L53.7214 64.6193C54.1269 64.6674 54.5342 64.709 54.9446 64.7538L55.1674 64.777C55.5646 64.817 55.9667 64.8536 56.3689 64.8884L56.6082 64.9101C57.0221 64.9417 57.4426 64.9749 57.8582 65.0031L57.9927 65.0115C58.4015 65.0398 58.8121 65.0613 59.2292 65.0845L59.3871 65.0929C59.8126 65.1128 60.2397 65.1328 60.6718 65.1444L60.9194 65.1527C61.3466 65.171 61.7737 65.1793 62.2108 65.1859L62.4286 65.1876C62.8773 65.1959 63.3342 65.1992 63.7931 65.1992L64.0523 65.1926V63.3213L63.7931 63.3246C52.4385 63.3246 43.3275 61.2322 37.8596 58.3951C37.5339 57.5226 37.3543 56.5837 37.3543 55.5998C37.3543 51.9534 39.8224 48.769 43.3541 47.8499L44.0838 47.6637L44.0588 46.9092L44.0504 46.7546L44.0421 46.6449C44.0421 42.2208 47.6387 38.6277 52.0628 38.6277C53.3475 38.6277 54.5823 38.9284 55.7342 39.5217L56.5567 39.949L56.9905 39.1346C58.3916 36.527 61.0973 34.9098 64.0523 34.9066V33.0284C60.7034 33.0302 57.6138 34.7171 55.7939 37.4859C54.6073 36.999 53.3542 36.7513 52.0628 36.7513C48.4147 36.7513 45.2221 38.7341 43.507 41.6773C36.3921 43.7682 31.5657 46.9524 30.5419 50.6521L30.537 50.6504L24.7151 70.2649C24.4076 71.3004 24.4326 72.3889 24.7915 73.411C25.5926 75.703 27.8097 80.1155 33.6614 83.9529C40.7399 88.5931 50.8745 90.9798 63.7964 91.0463L64.0523 91.0379V89.1616Z" fill="#BB071F"/>
<path fill-rule="evenodd" clip-rule="evenodd" d="M80.9535 63.4403L80.6145 61.6089C75.9842 62.6692 70.4266 63.3274 64.1826 63.3522V65.2219C70.3467 65.2004 76.069 64.5622 80.9568 63.4469L80.9535 63.4403Z" fill="#BB071F"/>
<path fill-rule="evenodd" clip-rule="evenodd" d="M102.896 70.2945L97.0752 50.6815L97.0703 50.6866C96.0764 47.1216 91.6904 43.5649 84.8615 41.9462C76.1611 39.8771 68.6887 39.7707 68.4461 39.7009C68.4461 39.7009 68.5707 42.4149 68.358 41.672C68.5376 41.7317 76.2508 42.0309 85.5943 44.1516C91.5592 45.5011 94.8865 48.8799 95.3484 51.5624L95.3534 51.5873L95.3817 51.8332L95.3883 51.8931L95.3984 52.169C95.3984 53.821 94.2083 55.5029 92.0295 57.0518C90.9576 57.8131 85.7573 60.2145 83.2194 60.9375L83.5585 62.7822C83.9557 62.671 84.3413 62.5546 84.7236 62.4383L84.7551 62.4282C85.5147 62.1957 86.2425 61.9464 86.9406 61.6871L86.9937 61.6704C87.1599 61.6073 87.3261 61.5459 87.4874 61.4827L87.5472 61.4594C88.0341 61.2699 88.5044 61.0739 88.9632 60.871L89.0496 60.8346L89.4501 60.6534L89.5897 60.5852L89.972 60.4058L90.0401 60.3709C90.2827 60.2529 90.5187 60.1314 90.7514 60.0119L90.9076 59.9254L91.2085 59.7609L91.4063 59.6546L91.6821 59.4933L91.9016 59.3637L92.2605 59.1393L92.5464 58.9582L92.7524 58.8235L92.9919 58.659L93.1847 58.5244L93.4372 58.3415L93.5885 58.2252L93.9624 57.9311L94.0771 57.8363L94.3379 57.6137L94.4676 57.499L94.7103 57.2762L94.8132 57.1781L95.1391 56.8557L95.1657 56.8241L95.4399 56.5234L95.5212 56.4269L95.7324 56.1709L95.8072 56.0797L96.0564 55.7472L96.0614 55.7389L96.2908 55.3849L96.3424 55.3035L96.442 55.1456L101.097 70.8312C101.29 71.4844 101.273 72.1757 101.047 72.8223C100.324 74.8897 98.3085 78.8818 92.9204 82.4169C86.2176 86.811 76.5416 89.0846 64.1865 89.196V91.0691C76.9189 90.961 86.9388 88.581 93.9491 83.9858C99.8026 80.1482 102.021 75.7357 102.819 73.4455C103.176 72.4201 103.203 71.3298 102.896 70.2945Z" fill="#BB071F"/>
<path fill-rule="evenodd" clip-rule="evenodd" d="M95.3857 44.5453C95.3857 50.9173 88.9854 56.0843 81.0928 56.0843C73.2034 56.0843 66.8047 50.9173 66.8047 44.5453C66.8047 38.1682 73.2034 33.0045 81.0928 33.0045C88.9854 33.0045 95.3857 38.1682 95.3857 44.5453Z" fill="white"/>
<path fill-rule="evenodd" clip-rule="evenodd" d="M73.7389 43.9284C72.047 43.9284 70.6743 45.3028 70.6743 46.9947C70.6743 48.6866 72.047 50.0594 73.7389 50.0594C75.4309 50.0594 76.8037 48.6866 76.8037 46.9947C76.8037 45.3028 75.4309 43.9284 73.7389 43.9284ZM73.7389 51.1032C71.4737 51.1032 69.6289 49.2584 69.6289 46.9947C69.6289 44.7279 71.4737 42.8846 73.7389 42.8846C76.0025 42.8846 77.849 44.7279 77.849 46.9947C77.849 49.2584 76.0025 51.1032 73.7389 51.1032Z" fill="#BB071F"/>
<path fill-rule="evenodd" clip-rule="evenodd" d="M82.5886 39.384C80.8984 39.384 79.5239 40.7601 79.5239 42.452C79.5239 44.1423 80.8984 45.5167 82.5886 45.5167C84.2805 45.5167 85.655 44.1423 85.655 42.452C85.655 40.7601 84.2805 39.384 82.5886 39.384ZM82.5886 46.5604C80.3233 46.5604 78.4785 44.7172 78.4785 42.452C78.4785 40.1851 80.3233 38.3419 82.5886 38.3419C84.8538 38.3419 86.7003 40.1851 86.7003 42.452C86.7003 44.7172 84.8538 46.5604 82.5886 46.5604Z" fill="#BB071F"/>
<path fill-rule="evenodd" clip-rule="evenodd" d="M82.8278 51.1021C81.1359 51.1021 79.7631 52.4799 79.7631 54.1701C79.7631 55.8603 81.1359 57.2348 82.8278 57.2348C84.5197 57.2348 85.8941 55.8603 85.8941 54.1701C85.8941 52.4799 84.5197 51.1021 82.8278 51.1021ZM82.8278 58.2802C80.5626 58.2802 78.7178 56.4354 78.7178 54.1701C78.7178 51.9031 80.5626 50.0601 82.8278 50.0601C85.0931 50.0601 86.9394 51.9031 86.9394 54.1701C86.9394 56.4354 85.0931 58.2802 82.8278 58.2802Z" fill="#BB071F"/>
<path fill-rule="evenodd" clip-rule="evenodd" d="M90.8395 44.4073C89.1492 44.4073 87.7748 45.7818 87.7748 47.4753C87.7748 49.1655 89.1492 50.54 90.8395 50.54C92.533 50.54 93.9075 49.1655 93.9075 47.4753C93.9075 45.7818 92.533 44.4073 90.8395 44.4073ZM90.8395 51.582C88.5743 51.582 86.7295 49.739 86.7295 47.4753C86.7295 45.2083 88.5743 43.3652 90.8395 43.3652C93.1048 43.3652 94.9511 45.2083 94.9511 47.4753C94.9511 49.739 93.1048 51.582 90.8395 51.582Z" fill="#BB071F"/>
<path fill-rule="evenodd" clip-rule="evenodd" d="M65.3136 19.1321L65.3066 16.2602L66.4328 16.2585L66.4363 19.1288L65.3136 19.1321ZM65.3257 24.8726L65.3188 22.004L66.4415 21.999L66.4485 24.8693L65.3257 24.8726ZM65.3379 30.6114L65.3309 27.7428L66.4537 27.7395L66.4606 30.6081L65.3379 30.6114ZM65.3483 36.3517L65.3413 33.4833L66.4641 33.4782L66.4693 36.3484L65.3483 36.3517ZM65.3587 42.0923L65.3518 39.2221L66.4762 39.2186L66.4832 42.089L65.3587 42.0923ZM65.3691 47.8326L65.3639 44.9624L66.4901 44.9574L66.4953 47.8293L65.3691 47.8326ZM65.383 53.5749L65.3761 50.7012L66.5005 50.6979L66.5057 53.5698L65.383 53.5749ZM65.3934 59.3137L65.3865 56.4433L66.5109 56.44L66.5179 59.3102L65.3934 59.3137ZM65.4038 65.054L65.4003 62.1838L66.5231 62.1788L66.5265 65.049L65.4038 65.054ZM65.4177 70.7928L65.4108 67.9226L66.5335 67.9193L66.5387 70.7895L65.4177 70.7928ZM65.4264 76.5333L65.4212 73.6647L66.5456 73.6597L66.5526 76.53L65.4264 76.5333ZM65.4368 82.2737L65.4333 79.4035L66.556 79.4002L66.563 82.2686L65.4368 82.2737ZM65.4507 88.0125L65.4437 85.144L66.5699 85.139L66.5734 88.0092L65.4507 88.0125ZM65.4628 93.7546L65.4559 90.8861L66.5803 90.8811L66.5855 93.7497L65.4628 93.7546ZM65.4715 99.4951L65.468 96.6249L66.589 96.6216L66.596 99.4918L65.4715 99.4951ZM65.4854 105.236L65.4784 102.365L66.6012 102.36L66.6064 105.231L65.4854 105.236ZM65.494 110.258L65.4906 108.104L66.615 108.101L66.6203 110.256L65.494 110.258Z" fill="#BB071F"/>
<path fill-rule="evenodd" clip-rule="evenodd" d="M69.2487 13.3833L66.3768 13.3916L65.3016 13.3933L62.433 13.3999L62.438 16.2668L62.4429 19.137V19.1404L62.4463 19.5392L62.4496 22.0106L62.4529 24.8759V24.8807L62.458 26.3184L62.4613 27.7511L62.4661 30.6162V30.623L62.4696 33.4881L62.4762 36.3583V36.3618L62.4795 37.801L62.4828 39.232L62.4878 42.0971V42.1021L62.4911 43.5414L62.4944 44.9723L62.4977 47.8376V47.8409L62.4994 49.2819L62.5027 50.7128L62.5093 53.5782V53.5815L62.5111 55.0207L62.5144 56.4516L62.5211 59.3185L62.526 62.1904L62.531 65.0573V65.0623V65.0722L62.5343 67.9325H62.5376L62.5409 70.7994V70.8044L62.5444 72.2419L62.5477 73.673L62.5525 76.5399V76.5432L62.5576 77.9825L62.5593 79.4118L62.5659 82.2787V82.2837V83.7213L62.5692 85.1539L62.5742 88.0191V88.0225L62.576 89.4618L62.2568 91.1818L62.5876 93.7578V93.7629H62.5841L62.5909 96.6282L62.5975 99.4984V99.5017L62.5992 100.943L62.6008 102.372L62.6075 105.242V105.244L62.6108 106.683L62.6141 108.114L62.6174 110.261L62.624 113.135L65.4959 113.127L66.5713 113.125L69.4382 113.118L69.4331 110.248L69.4281 108.094L69.4248 105.226L69.42 102.354L69.4165 100.913L69.4132 99.485L69.4066 96.6148H69.4099L69.4033 93.7462L69.3965 90.876L69.395 89.4318L69.3932 88.0041L69.3866 85.1355L69.3849 83.693L69.38 82.2653L69.3733 79.3952L69.3717 77.9509L69.3684 76.525L69.3634 73.6546L69.3601 72.2105L69.3583 70.7827L69.3518 67.9143L69.3485 65.0439L69.3434 62.1755V62.1738V62.1654L69.3384 59.3036L69.3318 56.4334L69.3285 54.9907L69.3252 53.5648L69.3202 50.6946L69.3184 49.2519L69.3151 47.8243L69.3101 44.9541L69.3053 43.5115L69.3035 42.0855L69.2969 39.2137L69.2952 37.7695L69.2919 36.3418L69.2869 33.4732H69.2886L69.2836 30.6013L69.2785 27.7327L69.2737 26.2901L69.2719 24.8625L69.2653 21.994L69.262 19.1254L69.2553 16.2552L69.2487 13.3833ZM66.5579 108.102L66.563 110.253L65.4876 110.256L65.4827 108.104L66.5579 108.102ZM66.548 102.36L66.5546 105.231L65.4777 105.234L65.4727 102.362L66.548 102.36ZM66.5364 96.6214L66.543 99.4918L65.4694 99.4933L65.4611 96.6232L66.5364 96.6214ZM66.8338 91.0921L66.5331 93.7495L65.4578 93.753L65.4512 90.8826L66.5264 90.8811L66.8338 91.0921ZM66.5147 85.1423L66.5231 88.0107L65.4461 88.0125L65.4395 85.1456L66.5147 85.1423ZM66.5048 79.4018L66.5114 82.2704L65.4345 82.2754L65.4295 79.4051L66.5048 79.4018ZM66.4948 73.663L66.4981 76.5316L65.4229 76.5349L65.4161 73.6647L66.4948 73.663ZM66.4831 67.9191L66.4882 70.7895L65.4095 70.7961L65.4062 67.9226L66.4831 67.9191ZM66.4715 62.1788L66.4781 65.049L65.4012 65.054L65.3979 62.1838L66.4715 62.1788ZM66.4616 56.44L66.4665 59.3102L65.3913 59.3135L65.3845 56.4433L66.4616 56.44ZM66.45 50.6995L66.4549 53.5698L65.3797 53.5747L65.3746 50.7045L66.45 50.6995ZM66.4417 44.9607L66.445 47.831L65.368 47.8343L65.3647 44.9642L66.4417 44.9607ZM66.4283 39.2203L66.4349 42.0889L65.3564 42.0938L65.3514 39.2254L66.4283 39.2203ZM66.4167 33.4782L66.4233 36.3502L65.3464 36.3535L65.3398 33.4831L66.4167 33.4782ZM66.4068 27.7395L66.4134 30.6079L65.3365 30.6114L65.3332 27.7428L66.4068 27.7395ZM66.3952 21.9989L66.4018 24.8691L65.3248 24.8726L65.3198 22.0039L66.3952 21.9989ZM66.3835 16.2585L66.3901 19.1287L65.3148 19.1321L65.3082 16.2618L66.3835 16.2585Z" fill="white"/>
<rect x="63.6338" y="66.8978" width="4.33203" height="22.6134" fill="#BB071F"/>
<path fill-rule="evenodd" clip-rule="evenodd" d="M65.2837 88.0524L65.277 85.1822L66.3556 85.1788L66.3589 88.0491L65.2837 88.0524ZM65.2671 79.4417L66.3425 79.4367L66.3491 82.3086L65.2721 82.3119L65.2671 79.4417ZM65.2537 73.6996L66.3308 73.6963L66.339 76.5665L65.2621 76.5715L65.2537 73.6996ZM65.2456 67.9608L66.3225 67.9591L66.3274 70.8277L65.2489 70.831L65.2456 67.9608ZM69.5772 88.0607V86.0412L69.5855 84.0978V83.0182L69.5772 79.9951V78.3756L69.5855 76.5632L69.5772 73.693L69.5855 70.8277L69.5772 67.9525L69.5855 64.7931H69.1876C68.2553 64.858 67.3047 64.9178 66.3157 64.956V65.0872L65.2388 65.0922V64.9843C64.7652 64.9975 64.3016 65.0159 63.8129 65.0207C63.3243 65.0275 62.8472 65.024 62.3686 65.0207L62.2872 63.4154L62.3752 67.9692L62.3785 70.8376V70.8393V70.8459L62.3853 73.708L62.3919 76.5764V76.5814L62.3936 78.0224L62.3985 79.45L62.4018 82.3187V82.3202L62.4068 83.7612L62.4085 85.1904L62.4136 88.059V88.0607L62.4169 89.5016L62.1094 91.1303C63.439 91.127 65.2588 91.1187 66.6814 91.039C67.6071 90.9908 68.7029 90.8125 69.5855 90.7378L69.5772 89.5016V88.0607Z" fill="#CD4F60"/>
<path fill-rule="evenodd" clip-rule="evenodd" d="M72.4225 54.095C70.7291 54.095 69.3563 55.4678 69.3563 57.1615C69.3563 58.8517 70.7291 60.2244 72.4225 60.2244C74.1145 60.2244 75.489 58.8517 75.489 57.1615C75.489 55.4678 74.1145 54.095 72.4225 54.095ZM72.4225 61.2698C70.1573 61.2698 68.3125 59.4267 68.3125 57.1615C68.3125 54.8928 70.1573 53.0513 72.4225 53.0513C74.688 53.0513 76.5328 54.8928 76.5328 57.1615C76.5328 59.4267 74.688 61.2698 72.4225 61.2698Z" fill="#BB071F"/>
<path fill-rule="evenodd" clip-rule="evenodd" d="M72.7829 34.3625C71.0927 34.3625 69.7165 35.7386 69.7165 37.4288C69.7165 39.1191 71.0927 40.4952 72.7829 40.4952C74.4748 40.4952 75.8492 39.1191 75.8492 37.4288C75.8492 35.7386 74.4748 34.3625 72.7829 34.3625ZM72.7829 41.539C70.5159 41.539 68.6729 39.6942 68.6729 37.4288C68.6729 35.162 70.5159 33.3187 72.7829 33.3187C75.0481 33.3187 76.8947 35.162 76.8947 37.4288C76.8947 39.6942 75.0481 41.539 72.7829 41.539Z" fill="#BB071F"/>
</svg>
