<svg width="34" height="47" viewBox="0 0 34 47" fill="none" xmlns="http://www.w3.org/2000/svg">
<path d="M32.1232 0.578369H3.19868C2.68337 0.578369 2.26562 0.996111 2.26562 1.51142V3.37752C2.26562 3.89283 2.68337 4.31057 3.19868 4.31057H3.64431H32.1232C32.6386 4.31057 33.0563 3.89283 33.0563 3.37752V1.51142C33.0563 0.99611 32.6386 0.578369 32.1232 0.578369Z" fill="white" stroke="#EAD8CD" stroke-width="0.933051"/>
<path d="M33.1383 3.84403C32.5162 5.39911 32.2052 6.17665 32.2052 7.57623C32.2052 9.62612 35.0042 28.5699 32.2053 33.2351C30.8904 36.0343 31.9341 39.7665 33.0538 41.6326V45.8313H1.79659V41.6326C2.72964 40.544 4.30703 36.9673 2.81415 33.2351C1.72559 29.1919 0.210403 18.7728 3.19616 7.57623C3.33211 6.89744 3.37341 5.34163 2.63676 3.96413L33.1383 3.84403Z" fill="white"/>
<path d="M33.1383 3.84403L33.5714 4.01729C33.629 3.87326 33.6113 3.71001 33.5241 3.58172C33.4368 3.45343 33.2915 3.3769 33.1364 3.37751L33.1383 3.84403ZM32.2053 33.2351L31.8052 32.9951L31.7931 33.0154L31.783 33.0368L32.2053 33.2351ZM33.0538 41.6326H33.5203V41.5034L33.4538 41.3926L33.0538 41.6326ZM33.0538 45.8313V46.2978H33.5203V45.8313H33.0538ZM1.79659 45.8313H1.33006V46.2978H1.79659V45.8313ZM1.79659 41.6326L1.44238 41.329L1.33006 41.46V41.6326H1.79659ZM2.81415 33.2351L2.36367 33.3564L2.3708 33.3829L2.381 33.4084L2.81415 33.2351ZM3.19616 7.57623L3.64694 7.69644L3.65072 7.68225L3.65361 7.66784L3.19616 7.57623ZM2.63676 3.96413L2.22537 4.18413L2.63676 3.96413ZM2.63698 3.09759C2.48239 2.89146 2.18997 2.84969 1.98384 3.00428C1.77772 3.15888 1.73595 3.45129 1.89054 3.65742L2.63698 3.09759ZM32.7051 3.67076C32.0834 5.22508 31.7387 6.0776 31.7387 7.57623H32.6717C32.6717 6.27571 32.9491 5.57314 33.5714 4.01729L32.7051 3.67076ZM31.7387 7.57623C31.7387 8.12034 31.9188 9.73122 32.1347 11.8417C32.3532 13.9772 32.6149 16.6759 32.7892 19.4541C32.9637 22.2345 33.05 25.0834 32.9202 27.5212C32.8553 28.7401 32.7368 29.8473 32.5512 30.7868C32.3644 31.7322 32.1152 32.4784 31.8052 32.9951L32.6053 33.4751C32.9951 32.8255 33.2706 31.9592 33.4665 30.9676C33.6636 29.9703 33.7856 28.816 33.8519 27.5708C33.9845 25.0806 33.8958 22.1907 33.7204 19.3957C33.5449 16.5986 33.2817 13.8854 33.0629 11.7467C32.8415 9.58286 32.6717 8.05706 32.6717 7.57623H31.7387ZM31.783 33.0368C31.0728 34.5488 31.0104 36.2841 31.2556 37.8557C31.501 39.4288 32.0617 40.8858 32.6537 41.8726L33.4538 41.3926C32.9262 40.5132 32.4052 39.1711 32.1775 37.7118C31.9496 36.251 32.0229 34.7206 32.6275 33.4335L31.783 33.0368ZM32.5873 41.6326V45.8313H33.5203V41.6326H32.5873ZM33.0538 45.3648H1.79659V46.2978H33.0538V45.3648ZM2.26311 45.8313V41.6326H1.33006V45.8313H2.26311ZM1.79659 42.0991H33.0538V41.166H1.79659V42.0991ZM2.1508 41.9362C2.67703 41.3222 3.33361 40.0811 3.67104 38.524C4.01086 36.956 4.03508 35.0313 3.24731 33.0619L2.381 33.4084C3.0861 35.1712 3.06807 36.9009 2.75915 38.3264C2.44784 39.7629 1.84919 40.8543 1.44238 41.329L2.1508 41.9362ZM3.26464 33.1138C2.19203 29.1299 0.687005 18.7962 3.64694 7.69644L2.74539 7.45602C-0.266199 18.7495 1.25916 29.2539 2.36367 33.3564L3.26464 33.1138ZM3.65361 7.66784C3.80433 6.91527 3.84944 5.24249 3.04815 3.74413L2.22537 4.18413C2.89738 5.44076 2.85989 6.87961 2.73872 7.48462L3.65361 7.66784ZM3.04815 3.74413C2.93046 3.52404 2.79422 3.30724 2.63698 3.09759L1.89054 3.65742C2.0177 3.82697 2.12873 4.00342 2.22537 4.18413L3.04815 3.74413ZM33.1364 3.37751L2.63492 3.49761L2.6386 4.43065L33.1401 4.31055L33.1364 3.37751Z" fill="#EAD8CD"/>
<path fill-rule="evenodd" clip-rule="evenodd" d="M12.398 27.6775C12.2712 27.6775 12.1454 27.6196 12.0634 27.5104C11.9256 27.326 11.9634 27.0643 12.1477 26.9263C13.256 26.0974 14.9522 25.6022 16.6849 25.6022H16.6851C18.4115 25.6022 20.1035 26.0971 21.2113 26.9263C21.3962 27.0643 21.4341 27.3255 21.2952 27.5102C21.1581 27.6945 20.8962 27.7323 20.7113 27.5941C19.9634 27.0345 18.5127 26.4366 16.6854 26.4366H16.6849C14.8492 26.4366 13.3961 27.0345 12.6477 27.5943C12.573 27.6504 12.4855 27.6775 12.398 27.6775Z" fill="#EC1D24"/>
<path fill-rule="evenodd" clip-rule="evenodd" d="M12.9783 28.3693C12.9002 28.3693 12.8221 28.3342 12.7681 28.2671C12.6738 28.1476 12.6905 27.9712 12.8062 27.8729C13.7166 27.1007 15.1678 26.6399 16.6889 26.6399C18.2024 26.6399 19.6498 27.1004 20.5602 27.8729C20.6762 27.9707 20.6931 28.1474 20.5981 28.2668C20.5029 28.3865 20.3319 28.4035 20.2162 28.3054C19.3993 27.6131 18.0808 27.1997 16.6889 27.1997C15.3109 27.1997 13.9547 27.6234 13.1507 28.3057C13.1004 28.3487 13.0393 28.3693 12.9783 28.3693Z" fill="#EC1D24"/>
<path fill-rule="evenodd" clip-rule="evenodd" d="M10.714 22.835C10.5537 22.835 10.3951 22.8767 10.2563 22.9553C10.049 23.0728 9.90121 23.2609 9.84092 23.4849C9.78182 23.7088 9.81515 23.9411 9.93856 24.1397C10.0984 24.3985 10.3944 24.5613 10.7119 24.564L10.7183 24.5644C10.8788 24.5642 11.0377 24.5226 11.1764 24.4435C11.384 24.326 11.5311 24.1383 11.5911 23.9148C11.6514 23.6909 11.6162 23.4581 11.4935 23.2596C11.332 22.9976 11.0332 22.835 10.714 22.835Z" fill="#EC1D24"/>
<path fill-rule="evenodd" clip-rule="evenodd" d="M16.8616 23.527C16.3629 23.527 15.957 23.915 15.957 24.3913C15.957 24.8684 16.3629 25.2564 16.8616 25.2564C17.3595 25.2564 17.7644 24.8684 17.7644 24.3913C17.7644 23.915 17.3595 23.527 16.8616 23.527Z" fill="#EC1D24"/>
<path fill-rule="evenodd" clip-rule="evenodd" d="M16.8616 21.1057C16.3629 21.1057 15.957 21.4938 15.957 21.9704C15.957 22.4473 16.3629 22.8351 16.8616 22.8351C17.3595 22.8351 17.7644 22.4473 17.7644 21.9704C17.7644 21.4938 17.3595 21.1057 16.8616 21.1057Z" fill="#EC1D24"/>
<path fill-rule="evenodd" clip-rule="evenodd" d="M14.3297 23.8727C14.2494 23.8727 14.169 23.8829 14.0907 23.903C13.6103 24.0289 13.3262 24.5058 13.4581 24.9656C13.5642 25.3363 13.9207 25.598 14.3255 25.6019L14.3458 25.6021C14.4212 25.6007 14.4959 25.5906 14.5687 25.5713C14.8011 25.5106 14.9945 25.3664 15.1144 25.1658C15.2338 24.9649 15.2643 24.7322 15.2009 24.5096C15.0931 24.1344 14.7354 23.8727 14.3297 23.8727Z" fill="#EC1D24"/>
<path fill-rule="evenodd" clip-rule="evenodd" d="M11.7958 24.5646C11.635 24.5646 11.4766 24.606 11.3385 24.6848C11.1306 24.8021 10.9828 24.9905 10.9229 25.2142C10.8636 25.4381 10.8979 25.6709 11.0201 25.8699C11.1802 26.1283 11.4763 26.2908 11.7944 26.2938L11.7999 26.294C11.9612 26.294 12.1187 26.2523 12.2587 26.1738C12.4661 26.056 12.6136 25.8681 12.673 25.6444C12.7333 25.4207 12.6985 25.1881 12.576 24.9891C12.4138 24.7274 12.1153 24.5646 11.7958 24.5646Z" fill="#EC1D24"/>
<path fill-rule="evenodd" clip-rule="evenodd" d="M19.6302 23.903C19.5521 23.8829 19.4721 23.8727 19.3917 23.8727C18.9858 23.8727 18.6275 24.1342 18.5205 24.5093C18.3889 24.9691 18.6727 25.4452 19.1533 25.5711C19.2314 25.5915 19.3124 25.6021 19.3926 25.6021C19.7975 25.6021 20.1568 25.3402 20.2638 24.9653C20.3947 24.5057 20.1109 24.0289 19.6302 23.903Z" fill="#EC1D24"/>
<path fill-rule="evenodd" clip-rule="evenodd" d="M20.3526 21.4822C20.2745 21.4618 20.1952 21.4514 20.114 21.4514C19.708 21.4514 19.3507 21.7133 19.2431 22.0882C19.1115 22.5479 19.3961 23.0242 19.8762 23.1501C19.9543 23.1704 20.0348 23.1808 20.1148 23.1808C20.5201 23.1808 20.879 22.9189 20.9862 22.5443C21.1178 22.0843 20.8331 21.6081 20.3526 21.4822Z" fill="#EC1D24"/>
<path fill-rule="evenodd" clip-rule="evenodd" d="M22.024 24.6848C21.8847 24.606 21.7259 24.5646 21.5652 24.5646C21.2467 24.5646 20.9483 24.7274 20.7865 24.9891C20.6637 25.1881 20.6289 25.4207 20.6888 25.6442C20.7482 25.8681 20.896 26.056 21.1036 26.1738C21.2436 26.2523 21.4019 26.294 21.5636 26.294C21.8813 26.294 22.1797 26.1314 22.3418 25.8697C22.4644 25.6709 22.4987 25.4381 22.4388 25.2142C22.3787 24.9905 22.2311 24.8021 22.024 24.6848Z" fill="#EC1D24"/>
<path fill-rule="evenodd" clip-rule="evenodd" d="M23.88 23.4849C23.8201 23.2612 23.6725 23.0728 23.4646 22.9553C23.3252 22.8767 23.167 22.8351 23.0061 22.8351C22.6884 22.8351 22.3898 22.9979 22.228 23.2596C22.105 23.4587 22.0702 23.6914 22.1303 23.9149C22.1899 24.1384 22.3376 24.3263 22.545 24.4438C22.6846 24.5228 22.8431 24.5645 23.0044 24.5645C23.3231 24.5645 23.6214 24.4019 23.7832 24.14C23.9058 23.9414 23.9403 23.7089 23.88 23.4849Z" fill="#EC1D24"/>
<path fill-rule="evenodd" clip-rule="evenodd" d="M13.6118 23.1808C13.6924 23.1808 13.7728 23.1702 13.8501 23.1498C14.3297 23.0242 14.6135 22.5477 14.4825 22.088C14.3756 21.7133 14.0173 21.4514 13.6111 21.4514C13.5307 21.4514 13.45 21.4618 13.3724 21.4822C12.8917 21.6081 12.6077 22.0843 12.7392 22.5443C12.8456 22.9151 13.2022 23.1765 13.6066 23.1804L13.6118 23.1808Z" fill="#EC1D24"/>
</svg>
