<svg width="59" height="44" viewBox="0 0 59 44" fill="none" xmlns="http://www.w3.org/2000/svg">
<g filter="url(#filter0_d_229_5854)">
<path d="M29.4492 38.4479C15.6614 38.505 2.94922 35.6816 2.94922 34.9386C2.94922 31.2464 6.30177 17.1408 6.85099 16.032C7.41165 14.9232 14.9406 13.4143 29.4492 13.4143C43.9579 13.4143 51.4868 14.9232 52.0475 16.032C52.6081 17.1408 55.9492 31.2464 55.9492 34.9386C55.9492 35.6816 43.237 38.3793 29.4492 38.4479Z" fill="white"/>
<path d="M50.4899 16.5239C50.4899 15.2437 41.0273 14.192 29.3563 14.192C17.6853 14.192 8.22266 15.2322 8.22266 16.5239C8.22266 17.8156 17.6853 18.8558 29.3563 18.8558C41.0273 18.8558 50.4899 17.8156 50.4899 16.5239Z" fill="#E7DED9"/>
<path d="M27.8447 5.64C27.8447 8.33768 25.6478 10.521 22.936 10.521C20.2242 10.521 18.0273 8.33768 18.0273 5.64C18.0273 2.94231 20.2242 0.759033 22.936 0.759033C25.6364 0.759033 27.8447 2.94231 27.8447 5.64Z" fill="#EAD8CD"/>
<path d="M25.6885 7.38949C25.6885 10.0872 23.4916 12.2704 20.7798 12.2704C18.068 12.2704 15.8711 10.0872 15.8711 7.38949C15.8711 4.69182 18.068 2.50854 20.7798 2.50854C23.4916 2.50854 25.6885 4.69182 25.6885 7.38949Z" fill="#EAD8CD"/>
<path d="M26.3213 12.7621C26.3213 15.4598 24.1244 17.6431 21.4126 17.6431C18.7008 17.6431 16.5039 15.4598 16.5039 12.7621C16.5039 10.0644 18.7008 7.8811 21.4126 7.8811C24.1244 7.8811 26.3213 10.0644 26.3213 12.7621Z" fill="#EAD8CD"/>
<path d="M47.8681 13.2641C47.8681 15.9617 45.6712 18.145 42.9595 18.145C40.2477 18.145 38.0508 15.9617 38.0508 13.2641C38.0508 10.5664 40.2477 8.38306 42.9595 8.38306C45.6712 8.38306 47.8681 10.5664 47.8681 13.2641Z" fill="#EAD8CD"/>
<path d="M32.876 7.38949C32.876 10.0872 30.6791 12.2704 27.9673 12.2704C25.2555 12.2704 23.0586 10.0872 23.0586 7.38949C23.0586 4.69182 25.2555 2.50854 27.9673 2.50854C30.6791 2.50854 32.876 4.69182 32.876 7.38949Z" fill="#EAD8CD"/>
<path d="M20.0283 12.2594C20.0283 14.9571 17.8314 17.1404 15.1196 17.1404C12.4078 17.1404 10.2109 14.9571 10.2109 12.2594C10.2109 9.56174 12.4078 7.37842 15.1196 7.37842C17.8314 7.37842 20.0283 9.57317 20.0283 12.2594Z" fill="#EAD8CD"/>
<path d="M33.2588 13.139C33.2588 15.8367 31.0619 18.02 28.3501 18.02C25.6383 18.02 23.4414 15.8367 23.4414 13.139C23.4414 10.4413 25.6383 8.25806 28.3501 8.25806C31.0619 8.25806 33.2588 10.4413 33.2588 13.139Z" fill="#EAD8CD"/>
<path d="M41.7002 8.13292C41.7002 10.8306 39.5033 13.0139 36.7915 13.0139C34.0797 13.0139 31.8828 10.8306 31.8828 8.13292C31.8828 5.43524 34.0797 3.25195 36.7915 3.25195C39.5033 3.26338 41.7002 5.44667 41.7002 8.13292Z" fill="#EAD8CD"/>
<path d="M45.8603 8.88671C45.8603 11.5844 43.6634 13.7677 40.9517 13.7677C38.2399 13.7677 36.043 11.5844 36.043 8.88671C36.043 6.18902 38.2399 4.00574 40.9517 4.00574C43.6634 4.00574 45.8603 6.18902 45.8603 8.88671Z" fill="#EAD8CD"/>
<path d="M39.7666 14.6399C39.7666 17.3376 37.5697 19.5209 34.8579 19.5209C32.1461 19.5209 29.9492 17.3376 29.9492 14.6399C29.9492 11.9422 32.1461 9.75891 34.8579 9.75891C37.5582 9.77034 39.7666 11.9536 39.7666 14.6399Z" fill="#EAD8CD"/>
<path d="M23.3865 32.6422C23.2148 32.6422 23.0432 32.5622 22.9288 32.4136C22.7343 32.1621 22.7915 31.7963 23.0432 31.6134C24.5764 30.4703 26.9106 29.7844 29.302 29.7844C31.682 29.7844 34.0162 30.4703 35.538 31.6134C35.7897 31.8077 35.847 32.1621 35.6524 32.4136C35.4694 32.665 35.1032 32.7222 34.8515 32.5279C33.8217 31.762 31.8193 30.9275 29.302 30.9275C26.7733 30.9275 24.771 31.7506 23.7412 32.5279C23.6267 32.6079 23.5123 32.6422 23.3865 32.6422Z" fill="#EC1D24"/>
<path d="M23.9138 33.625C23.7993 33.625 23.6849 33.5793 23.6048 33.4764C23.4675 33.3049 23.4904 33.0649 23.662 32.9277C24.9779 31.8418 27.0947 31.1902 29.2916 31.1902C31.4885 31.1902 33.5938 31.8418 34.9097 32.9277C35.0813 33.0649 35.1042 33.3163 34.9669 33.4764C34.8296 33.6478 34.5778 33.6707 34.4176 33.5336C33.2277 32.5619 31.3168 31.9789 29.303 31.9789C27.3006 31.9789 25.3326 32.5734 24.1655 33.5336C24.0854 33.5907 24.0053 33.625 23.9138 33.625Z" fill="#EC1D24"/>
<path d="M20.8251 25.349C20.5963 25.349 20.356 25.4176 20.1615 25.5319C19.864 25.7148 19.6466 26.0006 19.555 26.3435C19.4635 26.6864 19.5207 27.0408 19.6923 27.338C19.9212 27.738 20.356 27.9781 20.8251 27.9895H20.8365C21.0768 27.9895 21.3057 27.9209 21.5116 27.8066C21.8206 27.6237 22.0265 27.338 22.1181 26.995C22.2096 26.6521 22.1524 26.2978 21.9808 26.0006C21.729 25.6005 21.2942 25.349 20.8251 25.349Z" fill="#EC1D24"/>
<path d="M29.2963 26.3657C28.564 26.3657 27.9805 26.9601 27.9805 27.6803C27.9805 28.4118 28.5755 28.9948 29.2963 28.9948C30.0286 28.9948 30.6122 28.4004 30.6122 27.6803C30.6122 26.9601 30.0172 26.3657 29.2963 26.3657Z" fill="#EC1D24"/>
<path d="M29.2963 23.0626C28.564 23.0626 27.9805 23.657 27.9805 24.3772C27.9805 25.1087 28.5755 25.6917 29.2963 25.6917C30.0286 25.6917 30.6122 25.0973 30.6122 24.3772C30.6122 23.657 30.0172 23.0626 29.2963 23.0626Z" fill="#EC1D24"/>
<path d="M25.7781 26.8233C25.6637 26.8233 25.5378 26.8347 25.4234 26.869C24.7254 27.0634 24.3021 27.7835 24.4966 28.4922C24.6568 29.0523 25.1717 29.4524 25.7667 29.4638H25.801C25.9154 29.4638 26.0184 29.441 26.1214 29.4181C26.4646 29.3266 26.7392 29.1095 26.9223 28.8008C27.094 28.4922 27.1397 28.1378 27.0482 27.7949C26.8994 27.2234 26.3731 26.8233 25.7781 26.8233Z" fill="#EC1D24"/>
<path d="M22.5165 28.1953C22.2762 28.1953 22.0474 28.2639 21.8529 28.3782C21.5439 28.5611 21.338 28.8469 21.2464 29.1898C21.1549 29.5327 21.2121 29.8871 21.3837 30.1843C21.6126 30.5729 22.0474 30.8244 22.5165 30.8358H22.528C22.7682 30.8358 22.9971 30.7672 23.203 30.6529C23.5005 30.47 23.7179 30.1843 23.8095 29.8414C23.901 29.4984 23.8438 29.1441 23.6722 28.8469C23.409 28.4354 22.9742 28.1953 22.5165 28.1953Z" fill="#EC1D24"/>
<path d="M33.1498 26.8691C33.0354 26.8348 32.9209 26.8234 32.8065 26.8234C32.2115 26.8234 31.6852 27.2234 31.5364 27.795C31.3419 28.4923 31.7538 29.2238 32.4633 29.4182C32.5777 29.4524 32.6921 29.4639 32.818 29.4639C33.4129 29.4639 33.9393 29.0638 34.088 28.4923C34.2711 27.7836 33.8477 27.0634 33.1498 26.8691Z" fill="#EC1D24"/>
<path d="M34.0201 23.6797C33.9057 23.6454 33.7912 23.634 33.6768 23.634C33.0818 23.634 32.5669 24.0341 32.4067 24.6057C32.2122 25.3029 32.6356 26.0345 33.3336 26.2288C33.448 26.2631 33.5624 26.2746 33.6768 26.2746C34.2718 26.2746 34.7981 25.8745 34.9469 25.3029C35.1414 24.6056 34.7295 23.8741 34.0201 23.6797Z" fill="#EC1D24"/>
<path d="M36.7448 28.3783C36.5389 28.2526 36.31 28.1954 36.0698 28.1954C35.6006 28.1954 35.1658 28.4469 34.937 28.847C34.7539 29.1556 34.7081 29.51 34.7997 29.8415C34.8912 30.1844 35.0972 30.4702 35.4061 30.6531C35.6121 30.7788 35.8409 30.836 36.0812 30.836C36.5503 30.836 36.9851 30.5845 37.214 30.1844C37.397 29.8758 37.4428 29.5214 37.3513 29.1899C37.2597 28.8356 37.0423 28.5498 36.7448 28.3783Z" fill="#EC1D24"/>
<path d="M39.031 26.3436C38.9394 26.0007 38.722 25.7149 38.4245 25.532C38.2186 25.4177 37.9897 25.3491 37.7494 25.3491C37.2803 25.3491 36.8455 25.6006 36.6167 26.0007C36.4336 26.3093 36.3878 26.6637 36.4794 26.9952C36.5709 27.3381 36.7769 27.6239 37.0858 27.8067C37.2918 27.9325 37.5206 27.9896 37.7609 27.9896C38.23 27.9896 38.6648 27.7382 38.8937 27.3381C39.0653 27.0409 39.1111 26.6865 39.031 26.3436Z" fill="#EC1D24"/>
<path d="M24.9112 26.2745C25.0256 26.2745 25.1515 26.2631 25.2545 26.2288C25.9524 26.0344 26.3758 25.3143 26.1813 24.6056C26.0211 24.0341 25.5062 23.634 24.9112 23.634C24.7968 23.634 24.6709 23.6454 24.5679 23.6797C23.87 23.874 23.4466 24.5942 23.6411 25.3029C23.7899 25.8744 24.3162 26.2631 24.9112 26.2745Z" fill="#EC1D24"/>
</g>
<defs>
<filter id="filter0_d_229_5854" x="0.159745" y="0.0616648" width="58.5789" height="43.2686" filterUnits="userSpaceOnUse" color-interpolation-filters="sRGB">
<feFlood flood-opacity="0" result="BackgroundImageFix"/>
<feColorMatrix in="SourceAlpha" type="matrix" values="0 0 0 0 0 0 0 0 0 0 0 0 0 0 0 0 0 0 127 0" result="hardAlpha"/>
<feOffset dy="2.09211"/>
<feGaussianBlur stdDeviation="1.39474"/>
<feComposite in2="hardAlpha" operator="out"/>
<feColorMatrix type="matrix" values="0 0 0 0 0 0 0 0 0 0 0 0 0 0 0 0 0 0 0.1 0"/>
<feBlend mode="normal" in2="BackgroundImageFix" result="effect1_dropShadow_229_5854"/>
<feBlend mode="normal" in="SourceGraphic" in2="effect1_dropShadow_229_5854" result="shape"/>
</filter>
</defs>
</svg>
