<svg width="29" height="29" viewBox="0 0 29 29" fill="none" xmlns="http://www.w3.org/2000/svg">
<path d="M5.56505 17.1421C5.26144 17.1421 4.88192 17.1421 4.4265 17.1421C3.97109 17.0915 3.46507 16.965 2.90845 16.7626C2.14942 16.7626 1.6434 16.6867 1.39039 16.5349C1.13738 16.3325 0.909668 16.0541 0.70726 15.6999C0.150638 14.9409 0.100036 14.4349 0.555454 14.1819C1.01087 13.8783 2.17472 13.6252 4.04699 13.4228C4.90722 13.2204 6.17227 13.0686 7.84214 12.9674C9.5626 12.8156 11.4096 12.7144 13.3831 12.6638C15.3565 12.5626 17.2288 12.4867 18.9999 12.4361C20.7709 12.3855 22.1625 12.3602 23.1745 12.3602C24.4902 12.3602 25.3757 12.4108 25.8311 12.512C26.2866 12.6132 26.7926 12.9421 27.3492 13.4987C28.1082 14.2578 28.3865 14.9915 28.1841 15.6999C27.9817 16.3578 27.2986 16.5855 26.1348 16.3831C25.8817 16.3831 25.4769 16.4084 24.9203 16.459C24.4143 16.5096 23.8324 16.5602 23.1745 16.6108C22.5673 16.6614 21.9601 16.712 21.3529 16.7626C21.0493 16.7626 20.2143 16.7879 18.8481 16.8385C17.4818 16.8891 15.8879 16.9397 14.0662 16.9903C12.2951 17.0409 10.5999 17.0915 8.98068 17.1421C7.41202 17.1421 6.27348 17.1421 5.56505 17.1421ZM15.1288 28.2998C14.3698 28.8564 13.8385 28.907 13.5349 28.4516C13.2818 27.9962 13.0541 26.8324 12.8517 24.9601C12.6493 24.0999 12.4722 22.8348 12.3204 21.1649C12.2192 19.4445 12.118 17.5975 12.0168 15.624C11.9662 13.6505 11.9156 11.7783 11.865 10.0072C11.8144 8.23614 11.7891 6.84459 11.7891 5.83255C11.7891 4.51689 11.8397 3.63136 11.9409 3.17594C12.0927 2.72052 12.4216 2.2145 12.9276 1.65788C13.6867 0.898854 14.3951 0.620543 15.0529 0.822952C15.7613 1.02536 16.0144 1.70848 15.8119 2.87233C15.8626 3.12534 15.8879 3.53016 15.8879 4.08678C15.9385 4.5928 15.9891 5.17472 16.0397 5.83255C16.0903 6.43977 16.1409 7.04699 16.1915 7.65422C16.1915 7.95783 16.2168 8.79276 16.2674 10.159C16.318 11.5253 16.3686 13.1192 16.4192 14.9409C16.4698 16.712 16.4951 18.4071 16.4951 20.0264C16.5457 21.5951 16.571 22.7336 16.571 23.442C16.571 23.7456 16.5457 24.1252 16.4951 24.5806C16.4951 25.036 16.3939 25.542 16.1915 26.0986C16.1915 26.8577 16.0903 27.3637 15.8879 27.6167C15.736 27.8697 15.483 28.0974 15.1288 28.2998Z" fill="#BB071F"/>
</svg>
